<?xml version="1.0" encoding="utf-8" standalone="no"?>
<!DOCTYPE svg PUBLIC "-//W3C//DTD SVG 1.1//EN"
  "http://www.w3.org/Graphics/SVG/1.1/DTD/svg11.dtd">
<svg xmlns:xlink="http://www.w3.org/1999/xlink" width="611.528125pt" height="416.43pt" viewBox="0 0 611.528125 416.43" xmlns="http://www.w3.org/2000/svg" version="1.1">
 <metadata>
  <rdf:RDF xmlns:dc="http://purl.org/dc/elements/1.1/" xmlns:cc="http://creativecommons.org/ns#" xmlns:rdf="http://www.w3.org/1999/02/22-rdf-syntax-ns#">
   <cc:Work>
    <dc:type rdf:resource="http://purl.org/dc/dcmitype/StillImage"/>
    <dc:date>2023-08-16T12:58:15.290398</dc:date>
    <dc:format>image/svg+xml</dc:format>
    <dc:creator>
     <cc:Agent>
      <dc:title>Matplotlib v3.7.1, https://matplotlib.org/</dc:title>
     </cc:Agent>
    </dc:creator>
   </cc:Work>
  </rdf:RDF>
 </metadata>
 <defs>
  <style type="text/css">*{stroke-linejoin: round; stroke-linecap: butt}</style>
 </defs>
 <g id="figure_1">
  <g id="patch_1">
   <path d="M 0 416.43 
L 611.528125 416.43 
L 611.528125 0 
L 0 0 
L 0 416.43 
z
" style="fill: none"/>
  </g>
  <g id="axes_1">
   <g id="patch_2">
    <path d="M 54.453125 352 
L 597.313125 352 
L 597.313125 7.2 
L 54.453125 7.2 
L 54.453125 352 
z
" style="fill: none"/>
   </g>
   <g id="matplotlib.axis_1"/>
   <g id="matplotlib.axis_2">
    <g id="ytick_1">
     <g id="line2d_1">
      <path d="M 54.453125 336.470484 
L 597.313125 336.470484 
" clip-path="url(#p7ce2243636)" style="fill: none; stroke-dasharray: 1.85,0.8; stroke-dashoffset: 0; stroke: #d3d3d3; stroke-width: 0.5"/>
     </g>
     <g id="line2d_2">
      <defs>
       <path id="ma6d08ed287" d="M 0 0 
L -5 0 
" style="stroke: #000000; stroke-width: 0.8"/>
      </defs>
      <g>
       <use xlink:href="#ma6d08ed287" x="54.453125" y="336.470484" style="stroke: #000000; stroke-width: 0.8"/>
      </g>
     </g>
     <g id="text_1">
      <!-- 0.0 -->
      <g transform="translate(24.3475 340.147359) scale(0.12 -0.12)">
       <defs>
        <path id="CourierNewPSMT-30" d="M 3125 2284 
L 3125 1634 
Q 3125 788 2722 294 
Q 2406 -94 1925 -94 
Q 1694 -94 1489 -1 
Q 1284 91 1141 256 
Q 1050 359 942 587 
Q 834 816 788 1006 
Q 716 1275 716 1634 
L 716 2284 
Q 716 3134 1119 3628 
Q 1434 4016 1916 4016 
Q 2150 4016 2353 3923 
Q 2556 3831 2700 3666 
Q 2794 3559 2900 3331 
Q 3006 3103 3056 2916 
Q 3125 2647 3125 2284 
z
M 2863 2250 
Q 2863 2622 2758 2942 
Q 2653 3263 2522 3453 
Q 2444 3563 2319 3641 
Q 2141 3750 1919 3750 
Q 1478 3750 1228 3300 
Q 978 2850 978 2250 
L 978 1672 
Q 978 1300 1083 978 
Q 1188 656 1322 466 
Q 1397 359 1522 281 
Q 1700 169 1925 169 
Q 2363 169 2613 620 
Q 2863 1072 2863 1672 
L 2863 2250 
z
" transform="scale(0.015625)"/>
        <path id="CourierNewPSMT-2e" d="M 1866 753 
L 1978 753 
Q 2153 753 2278 629 
Q 2403 506 2403 331 
Q 2403 150 2276 28 
Q 2150 -94 1978 -94 
L 1866 -94 
Q 1691 -94 1566 29 
Q 1441 153 1441 328 
Q 1441 509 1567 631 
Q 1694 753 1866 753 
z
" transform="scale(0.015625)"/>
       </defs>
       <use xlink:href="#CourierNewPSMT-30"/>
       <use xlink:href="#CourierNewPSMT-2e" x="60.009766"/>
       <use xlink:href="#CourierNewPSMT-30" x="120.019531"/>
      </g>
     </g>
    </g>
    <g id="ytick_2">
     <g id="line2d_3">
      <path d="M 54.453125 273.474093 
L 597.313125 273.474093 
" clip-path="url(#p7ce2243636)" style="fill: none; stroke-dasharray: 1.85,0.8; stroke-dashoffset: 0; stroke: #d3d3d3; stroke-width: 0.5"/>
     </g>
     <g id="line2d_4">
      <g>
       <use xlink:href="#ma6d08ed287" x="54.453125" y="273.474093" style="stroke: #000000; stroke-width: 0.8"/>
      </g>
     </g>
     <g id="text_2">
      <!-- 0.2 -->
      <g transform="translate(24.3475 277.150968) scale(0.12 -0.12)">
       <defs>
        <path id="CourierNewPSMT-32" d="M 791 263 
L 2806 263 
L 2806 366 
Q 2806 459 2843 500 
Q 2881 541 2941 541 
Q 2997 541 3034 500 
Q 3072 459 3072 366 
L 3072 0 
L 534 0 
L 534 388 
Q 1334 1106 2091 1850 
Q 2444 2197 2575 2359 
Q 2706 2522 2754 2645 
Q 2803 2769 2803 2894 
Q 2803 3231 2531 3490 
Q 2259 3750 1875 3750 
Q 1531 3750 1265 3553 
Q 1000 3356 922 3066 
Q 903 2991 875 2969 
Q 838 2938 788 2938 
Q 734 2938 698 2973 
Q 663 3009 663 3059 
Q 663 3209 827 3465 
Q 991 3722 1280 3869 
Q 1569 4016 1872 4016 
Q 2363 4016 2716 3675 
Q 3069 3334 3069 2903 
Q 3069 2722 3009 2570 
Q 2950 2419 2808 2239 
Q 2666 2059 2297 1697 
Q 1372 784 791 281 
L 791 263 
z
" transform="scale(0.015625)"/>
       </defs>
       <use xlink:href="#CourierNewPSMT-30"/>
       <use xlink:href="#CourierNewPSMT-2e" x="60.009766"/>
       <use xlink:href="#CourierNewPSMT-32" x="120.019531"/>
      </g>
     </g>
    </g>
    <g id="ytick_3">
     <g id="line2d_5">
      <path d="M 54.453125 210.477702 
L 597.313125 210.477702 
" clip-path="url(#p7ce2243636)" style="fill: none; stroke-dasharray: 1.85,0.8; stroke-dashoffset: 0; stroke: #d3d3d3; stroke-width: 0.5"/>
     </g>
     <g id="line2d_6">
      <g>
       <use xlink:href="#ma6d08ed287" x="54.453125" y="210.477702" style="stroke: #000000; stroke-width: 0.8"/>
      </g>
     </g>
     <g id="text_3">
      <!-- 0.4 -->
      <g transform="translate(24.3475 214.154577) scale(0.12 -0.12)">
       <defs>
        <path id="CourierNewPSMT-34" d="M 2409 1097 
L 669 1097 
L 669 1400 
L 2128 3922 
L 2675 3922 
L 2675 1359 
L 2894 1359 
Q 2991 1359 3031 1323 
Q 3072 1288 3072 1228 
Q 3072 1172 3031 1134 
Q 2991 1097 2894 1097 
L 2675 1097 
L 2675 263 
L 2894 263 
Q 2991 263 3031 227 
Q 3072 191 3072 131 
Q 3072 75 3031 37 
Q 2991 0 2894 0 
L 1919 0 
Q 1822 0 1781 37 
Q 1741 75 1741 131 
Q 1741 191 1781 227 
Q 1822 263 1919 263 
L 2409 263 
L 2409 1097 
z
M 2409 1359 
L 2409 3656 
L 2272 3656 
L 944 1359 
L 2409 1359 
z
" transform="scale(0.015625)"/>
       </defs>
       <use xlink:href="#CourierNewPSMT-30"/>
       <use xlink:href="#CourierNewPSMT-2e" x="60.009766"/>
       <use xlink:href="#CourierNewPSMT-34" x="120.019531"/>
      </g>
     </g>
    </g>
    <g id="ytick_4">
     <g id="line2d_7">
      <path d="M 54.453125 147.481311 
L 597.313125 147.481311 
" clip-path="url(#p7ce2243636)" style="fill: none; stroke-dasharray: 1.85,0.8; stroke-dashoffset: 0; stroke: #d3d3d3; stroke-width: 0.5"/>
     </g>
     <g id="line2d_8">
      <g>
       <use xlink:href="#ma6d08ed287" x="54.453125" y="147.481311" style="stroke: #000000; stroke-width: 0.8"/>
      </g>
     </g>
     <g id="text_4">
      <!-- 0.6 -->
      <g transform="translate(24.3475 151.158186) scale(0.12 -0.12)">
       <defs>
        <path id="CourierNewPSMT-36" d="M 1138 1659 
Q 1381 2019 1639 2191 
Q 1897 2363 2213 2363 
Q 2631 2363 2956 2014 
Q 3281 1666 3281 1153 
Q 3281 684 2984 295 
Q 2688 -94 2166 -94 
Q 1825 -94 1529 115 
Q 1234 325 1066 759 
Q 856 1300 856 1956 
Q 856 2450 1053 2875 
Q 1203 3203 1453 3451 
Q 1703 3700 2036 3858 
Q 2369 4016 2756 4016 
Q 3019 4016 3194 3909 
Q 3269 3863 3269 3784 
Q 3269 3728 3234 3692 
Q 3200 3656 3147 3656 
Q 3106 3656 3050 3688 
Q 2922 3750 2731 3750 
Q 2122 3750 1620 3226 
Q 1119 2703 1119 1981 
Q 1119 1878 1138 1659 
z
M 1197 1225 
Q 1316 656 1570 412 
Q 1825 169 2172 169 
Q 2522 169 2770 442 
Q 3019 716 3019 1153 
Q 3019 1563 2769 1831 
Q 2519 2100 2203 2100 
Q 1900 2100 1619 1841 
Q 1431 1669 1197 1225 
z
" transform="scale(0.015625)"/>
       </defs>
       <use xlink:href="#CourierNewPSMT-30"/>
       <use xlink:href="#CourierNewPSMT-2e" x="60.009766"/>
       <use xlink:href="#CourierNewPSMT-36" x="120.019531"/>
      </g>
     </g>
    </g>
    <g id="ytick_5">
     <g id="line2d_9">
      <path d="M 54.453125 84.48492 
L 597.313125 84.48492 
" clip-path="url(#p7ce2243636)" style="fill: none; stroke-dasharray: 1.85,0.8; stroke-dashoffset: 0; stroke: #d3d3d3; stroke-width: 0.5"/>
     </g>
     <g id="line2d_10">
      <g>
       <use xlink:href="#ma6d08ed287" x="54.453125" y="84.48492" style="stroke: #000000; stroke-width: 0.8"/>
      </g>
     </g>
     <g id="text_5">
      <!-- 0.8 -->
      <g transform="translate(24.3475 88.161795) scale(0.12 -0.12)">
       <defs>
        <path id="CourierNewPSMT-38" d="M 2459 2034 
Q 2788 1875 2955 1614 
Q 3122 1353 3122 1053 
Q 3122 588 2772 247 
Q 2422 -94 1922 -94 
Q 1422 -94 1072 247 
Q 722 588 722 1053 
Q 722 1350 889 1611 
Q 1056 1872 1388 2034 
Q 1100 2200 969 2378 
Q 788 2631 788 2938 
Q 788 3369 1120 3692 
Q 1453 4016 1922 4016 
Q 2394 4016 2725 3692 
Q 3056 3369 3056 2938 
Q 3056 2631 2875 2381 
Q 2747 2200 2459 2034 
z
M 2788 2928 
Q 2788 3266 2536 3508 
Q 2284 3750 1919 3750 
Q 1556 3750 1304 3506 
Q 1053 3263 1053 2931 
Q 1053 2625 1301 2395 
Q 1550 2166 1919 2166 
Q 2291 2166 2539 2395 
Q 2788 2625 2788 2928 
z
M 2859 1047 
Q 2859 1394 2590 1650 
Q 2322 1906 1922 1906 
Q 1522 1906 1253 1650 
Q 984 1394 984 1050 
Q 984 694 1254 431 
Q 1525 169 1922 169 
Q 2319 169 2589 431 
Q 2859 694 2859 1047 
z
" transform="scale(0.015625)"/>
       </defs>
       <use xlink:href="#CourierNewPSMT-30"/>
       <use xlink:href="#CourierNewPSMT-2e" x="60.009766"/>
       <use xlink:href="#CourierNewPSMT-38" x="120.019531"/>
      </g>
     </g>
    </g>
    <g id="ytick_6">
     <g id="line2d_11">
      <path d="M 54.453125 21.488529 
L 597.313125 21.488529 
" clip-path="url(#p7ce2243636)" style="fill: none; stroke-dasharray: 1.85,0.8; stroke-dashoffset: 0; stroke: #d3d3d3; stroke-width: 0.5"/>
     </g>
     <g id="line2d_12">
      <g>
       <use xlink:href="#ma6d08ed287" x="54.453125" y="21.488529" style="stroke: #000000; stroke-width: 0.8"/>
      </g>
     </g>
     <g id="text_6">
      <!-- 1.0 -->
      <g transform="translate(24.3475 25.165404) scale(0.12 -0.12)">
       <defs>
        <path id="CourierNewPSMT-31" d="M 2050 3975 
L 2050 263 
L 2950 263 
Q 3044 263 3084 227 
Q 3125 191 3125 131 
Q 3125 75 3084 37 
Q 3044 0 2950 0 
L 888 0 
Q 794 0 753 37 
Q 713 75 713 131 
Q 713 191 753 227 
Q 794 263 888 263 
L 1788 263 
L 1788 3613 
L 931 3344 
Q 869 3325 841 3325 
Q 794 3325 755 3364 
Q 716 3403 716 3456 
Q 716 3503 747 3544 
Q 772 3569 850 3597 
L 2050 3975 
z
" transform="scale(0.015625)"/>
       </defs>
       <use xlink:href="#CourierNewPSMT-31"/>
       <use xlink:href="#CourierNewPSMT-2e" x="60.009766"/>
       <use xlink:href="#CourierNewPSMT-30" x="120.019531"/>
      </g>
     </g>
    </g>
    <g id="text_7">
     <!-- Average probability -->
     <g transform="translate(17.3325 270.82375) rotate(-90) scale(0.16 -0.16)">
      <defs>
       <path id="CourierNewPSMT-41" d="M 2784 1222 
L 1059 1222 
L 706 263 
L 1209 263 
Q 1303 263 1343 227 
Q 1384 191 1384 131 
Q 1384 75 1343 37 
Q 1303 0 1209 0 
L 228 0 
Q 134 0 93 37 
Q 53 75 53 131 
Q 53 191 93 227 
Q 134 263 228 263 
L 431 263 
L 1591 3394 
L 816 3394 
Q 722 3394 681 3430 
Q 641 3466 641 3525 
Q 641 3584 681 3620 
Q 722 3656 816 3656 
L 2138 3656 
L 3419 263 
L 3622 263 
Q 3716 263 3756 227 
Q 3797 191 3797 131 
Q 3797 75 3756 37 
Q 3716 0 3622 0 
L 2644 0 
Q 2547 0 2506 37 
Q 2466 75 2466 131 
Q 2466 191 2506 227 
Q 2547 263 2644 263 
L 3144 263 
L 2784 1222 
z
M 2684 1484 
L 1959 3394 
L 1863 3394 
L 1159 1484 
L 2684 1484 
z
" transform="scale(0.015625)"/>
       <path id="CourierNewPSMT-76" d="M 2150 0 
L 1706 0 
L 628 2441 
L 359 2441 
Q 266 2441 225 2478 
Q 184 2516 184 2575 
Q 184 2631 225 2668 
Q 266 2706 359 2706 
L 1344 2706 
Q 1438 2706 1478 2668 
Q 1519 2631 1519 2572 
Q 1519 2516 1478 2478 
Q 1438 2441 1344 2441 
L 909 2441 
L 1872 263 
L 1988 263 
L 2931 2441 
L 2494 2441 
Q 2400 2441 2359 2478 
Q 2319 2516 2319 2575 
Q 2319 2631 2359 2668 
Q 2400 2706 2494 2706 
L 3481 2706 
Q 3578 2706 3617 2668 
Q 3656 2631 3656 2572 
Q 3656 2516 3617 2478 
Q 3578 2441 3481 2441 
L 3216 2441 
L 2150 0 
z
" transform="scale(0.015625)"/>
       <path id="CourierNewPSMT-65" d="M 3341 1291 
L 666 1291 
Q 734 781 1092 470 
Q 1450 159 1978 159 
Q 2272 159 2594 256 
Q 2916 353 3119 513 
Q 3178 559 3222 559 
Q 3272 559 3309 520 
Q 3347 481 3347 428 
Q 3347 375 3297 325 
Q 3147 169 2764 33 
Q 2381 -103 1978 -103 
Q 1303 -103 851 339 
Q 400 781 400 1409 
Q 400 1981 823 2390 
Q 1247 2800 1872 2800 
Q 2516 2800 2931 2379 
Q 3347 1959 3341 1291 
z
M 3075 1556 
Q 2997 1991 2664 2262 
Q 2331 2534 1872 2534 
Q 1413 2534 1081 2265 
Q 750 1997 669 1556 
L 3075 1556 
z
" transform="scale(0.015625)"/>
       <path id="CourierNewPSMT-72" d="M 1606 2706 
L 1606 2044 
Q 2119 2506 2373 2639 
Q 2628 2772 2844 2772 
Q 3078 2772 3279 2614 
Q 3481 2456 3481 2375 
Q 3481 2316 3442 2277 
Q 3403 2238 3344 2238 
Q 3313 2238 3291 2248 
Q 3269 2259 3209 2319 
Q 3100 2428 3019 2468 
Q 2938 2509 2859 2509 
Q 2688 2509 2445 2371 
Q 2203 2234 1606 1700 
L 1606 263 
L 2769 263 
Q 2866 263 2906 227 
Q 2947 191 2947 131 
Q 2947 75 2906 37 
Q 2866 0 2769 0 
L 709 0 
Q 616 0 575 36 
Q 534 72 534 128 
Q 534 181 573 217 
Q 613 253 709 253 
L 1344 253 
L 1344 2441 
L 859 2441 
Q 766 2441 725 2478 
Q 684 2516 684 2575 
Q 684 2631 723 2668 
Q 763 2706 859 2706 
L 1606 2706 
z
" transform="scale(0.015625)"/>
       <path id="CourierNewPSMT-61" d="M 2675 0 
L 2675 378 
Q 2103 -103 1453 -103 
Q 981 -103 715 136 
Q 450 375 450 722 
Q 450 1103 800 1387 
Q 1150 1672 1822 1672 
Q 2003 1672 2215 1648 
Q 2428 1625 2675 1575 
L 2675 2000 
Q 2675 2216 2475 2375 
Q 2275 2534 1875 2534 
Q 1569 2534 1016 2356 
Q 916 2325 888 2325 
Q 838 2325 802 2362 
Q 766 2400 766 2456 
Q 766 2509 797 2541 
Q 841 2588 1150 2669 
Q 1638 2800 1888 2800 
Q 2384 2800 2662 2554 
Q 2941 2309 2941 2000 
L 2941 263 
L 3291 263 
Q 3388 263 3428 227 
Q 3469 191 3469 131 
Q 3469 75 3428 37 
Q 3388 0 3291 0 
L 2675 0 
z
M 2675 1306 
Q 2491 1359 2284 1384 
Q 2078 1409 1850 1409 
Q 1278 1409 956 1163 
Q 713 978 713 722 
Q 713 484 898 321 
Q 1084 159 1441 159 
Q 1781 159 2073 295 
Q 2366 431 2675 728 
L 2675 1306 
z
" transform="scale(0.015625)"/>
       <path id="CourierNewPSMT-67" d="M 2803 2225 
L 2803 2706 
L 3419 2706 
Q 3513 2706 3553 2668 
Q 3594 2631 3594 2572 
Q 3594 2516 3553 2478 
Q 3513 2441 3419 2441 
L 3066 2441 
L 3066 -181 
Q 3066 -444 2953 -650 
Q 2878 -788 2703 -934 
Q 2528 -1081 2384 -1143 
Q 2241 -1206 2000 -1206 
L 1256 -1206 
Q 1163 -1206 1122 -1170 
Q 1081 -1134 1081 -1075 
Q 1081 -1016 1122 -978 
Q 1163 -941 1256 -941 
L 2009 -944 
Q 2241 -944 2427 -825 
Q 2613 -706 2734 -478 
Q 2803 -347 2803 -144 
L 2803 644 
Q 2381 66 1716 66 
Q 1175 66 783 467 
Q 391 869 391 1434 
Q 391 2000 783 2400 
Q 1175 2800 1716 2800 
Q 2381 2800 2803 2225 
z
M 2803 1434 
Q 2803 1897 2486 2215 
Q 2169 2534 1728 2534 
Q 1288 2534 972 2214 
Q 656 1894 656 1434 
Q 656 972 972 651 
Q 1288 331 1728 331 
Q 2169 331 2486 651 
Q 2803 972 2803 1434 
z
" transform="scale(0.015625)"/>
       <path id="CourierNewPSMT-20" transform="scale(0.015625)"/>
       <path id="CourierNewPSMT-70" d="M 931 2706 
L 931 2228 
Q 1166 2513 1434 2656 
Q 1703 2800 2069 2800 
Q 2456 2800 2784 2619 
Q 3113 2438 3292 2114 
Q 3472 1791 3472 1434 
Q 3472 869 3067 467 
Q 2663 66 2072 66 
Q 1369 66 931 638 
L 931 -944 
L 1569 -944 
Q 1663 -944 1703 -980 
Q 1744 -1016 1744 -1075 
Q 1744 -1131 1703 -1168 
Q 1663 -1206 1569 -1206 
L 316 -1206 
Q 222 -1206 181 -1170 
Q 141 -1134 141 -1075 
Q 141 -1016 181 -980 
Q 222 -944 316 -944 
L 669 -944 
L 669 2441 
L 316 2441 
Q 222 2441 181 2478 
Q 141 2516 141 2575 
Q 141 2631 181 2668 
Q 222 2706 316 2706 
L 931 2706 
z
M 3206 1434 
Q 3206 1888 2876 2211 
Q 2547 2534 2072 2534 
Q 1594 2534 1262 2209 
Q 931 1884 931 1434 
Q 931 981 1262 656 
Q 1594 331 2072 331 
Q 2544 331 2875 654 
Q 3206 978 3206 1434 
z
" transform="scale(0.015625)"/>
       <path id="CourierNewPSMT-6f" d="M 3388 1347 
Q 3388 747 2958 322 
Q 2528 -103 1922 -103 
Q 1309 -103 881 323 
Q 453 750 453 1347 
Q 453 1947 881 2373 
Q 1309 2800 1922 2800 
Q 2528 2800 2958 2375 
Q 3388 1950 3388 1347 
z
M 3122 1347 
Q 3122 1841 2770 2187 
Q 2419 2534 1919 2534 
Q 1419 2534 1067 2186 
Q 716 1838 716 1347 
Q 716 859 1067 509 
Q 1419 159 1919 159 
Q 2419 159 2770 507 
Q 3122 856 3122 1347 
z
" transform="scale(0.015625)"/>
       <path id="CourierNewPSMT-62" d="M 931 3922 
L 931 2181 
Q 1406 2800 2078 2800 
Q 2653 2800 3062 2383 
Q 3472 1966 3472 1359 
Q 3472 747 3058 322 
Q 2644 -103 2078 -103 
Q 1391 -103 931 516 
L 931 0 
L 316 0 
Q 222 0 181 37 
Q 141 75 141 131 
Q 141 191 181 227 
Q 222 263 316 263 
L 669 263 
L 669 3656 
L 316 3656 
Q 222 3656 181 3693 
Q 141 3731 141 3791 
Q 141 3847 181 3884 
Q 222 3922 316 3922 
L 931 3922 
z
M 3209 1347 
Q 3209 1844 2868 2189 
Q 2528 2534 2072 2534 
Q 1616 2534 1275 2189 
Q 934 1844 934 1347 
Q 934 850 1275 504 
Q 1616 159 2072 159 
Q 2528 159 2868 504 
Q 3209 850 3209 1347 
z
" transform="scale(0.015625)"/>
       <path id="CourierNewPSMT-69" d="M 2050 4053 
L 2050 3375 
L 1663 3375 
L 1663 4053 
L 2050 4053 
z
M 2059 2706 
L 2059 263 
L 3091 263 
Q 3188 263 3228 227 
Q 3269 191 3269 131 
Q 3269 75 3228 37 
Q 3188 0 3091 0 
L 766 0 
Q 672 0 631 37 
Q 591 75 591 131 
Q 591 191 631 227 
Q 672 263 766 263 
L 1797 263 
L 1797 2441 
L 1031 2441 
Q 938 2441 895 2478 
Q 853 2516 853 2572 
Q 853 2631 893 2668 
Q 934 2706 1031 2706 
L 2059 2706 
z
" transform="scale(0.015625)"/>
       <path id="CourierNewPSMT-6c" d="M 2053 3922 
L 2053 263 
L 3084 263 
Q 3181 263 3222 227 
Q 3263 191 3263 131 
Q 3263 75 3222 37 
Q 3181 0 3084 0 
L 759 0 
Q 666 0 625 37 
Q 584 75 584 131 
Q 584 191 625 227 
Q 666 263 759 263 
L 1791 263 
L 1791 3656 
L 1034 3656 
Q 941 3656 898 3693 
Q 856 3731 856 3791 
Q 856 3847 897 3884 
Q 938 3922 1034 3922 
L 2053 3922 
z
" transform="scale(0.015625)"/>
       <path id="CourierNewPSMT-74" d="M 1381 2706 
L 2806 2706 
Q 2900 2706 2940 2668 
Q 2981 2631 2981 2572 
Q 2981 2516 2940 2478 
Q 2900 2441 2806 2441 
L 1381 2441 
L 1381 694 
Q 1381 466 1564 312 
Q 1747 159 2100 159 
Q 2366 159 2675 239 
Q 2984 319 3156 419 
Q 3219 459 3259 459 
Q 3309 459 3346 420 
Q 3384 381 3384 328 
Q 3384 281 3344 241 
Q 3244 138 2858 17 
Q 2472 -103 2119 -103 
Q 1659 -103 1387 112 
Q 1116 328 1116 694 
L 1116 2441 
L 631 2441 
Q 538 2441 497 2478 
Q 456 2516 456 2575 
Q 456 2631 497 2668 
Q 538 2706 631 2706 
L 1116 2706 
L 1116 3481 
Q 1116 3575 1153 3615 
Q 1191 3656 1247 3656 
Q 1306 3656 1343 3615 
Q 1381 3575 1381 3481 
L 1381 2706 
z
" transform="scale(0.015625)"/>
       <path id="CourierNewPSMT-79" d="M 1938 0 
L 719 2441 
L 641 2441 
Q 547 2441 506 2478 
Q 466 2516 466 2572 
Q 466 2613 486 2645 
Q 506 2678 539 2692 
Q 572 2706 641 2706 
L 1359 2706 
Q 1453 2706 1493 2668 
Q 1534 2631 1534 2572 
Q 1534 2516 1493 2478 
Q 1453 2441 1359 2441 
L 1006 2441 
L 2078 288 
L 3134 2441 
L 2781 2441 
Q 2688 2441 2647 2478 
Q 2606 2516 2606 2575 
Q 2606 2631 2647 2668 
Q 2688 2706 2781 2706 
L 3497 2706 
Q 3594 2706 3634 2668 
Q 3675 2631 3675 2572 
Q 3675 2531 3650 2497 
Q 3625 2463 3594 2452 
Q 3563 2441 3419 2441 
L 1756 -944 
L 2166 -944 
Q 2259 -944 2300 -980 
Q 2341 -1016 2341 -1075 
Q 2341 -1131 2300 -1168 
Q 2259 -1206 2166 -1206 
L 653 -1206 
Q 559 -1206 518 -1170 
Q 478 -1134 478 -1075 
Q 478 -1016 518 -980 
Q 559 -944 653 -944 
L 1475 -944 
L 1938 0 
z
" transform="scale(0.015625)"/>
      </defs>
      <use xlink:href="#CourierNewPSMT-41"/>
      <use xlink:href="#CourierNewPSMT-76" x="60.009766"/>
      <use xlink:href="#CourierNewPSMT-65" x="120.019531"/>
      <use xlink:href="#CourierNewPSMT-72" x="180.029297"/>
      <use xlink:href="#CourierNewPSMT-61" x="240.039062"/>
      <use xlink:href="#CourierNewPSMT-67" x="300.048828"/>
      <use xlink:href="#CourierNewPSMT-65" x="360.058594"/>
      <use xlink:href="#CourierNewPSMT-20" x="420.068359"/>
      <use xlink:href="#CourierNewPSMT-70" x="480.078125"/>
      <use xlink:href="#CourierNewPSMT-72" x="540.087891"/>
      <use xlink:href="#CourierNewPSMT-6f" x="600.097656"/>
      <use xlink:href="#CourierNewPSMT-62" x="660.107422"/>
      <use xlink:href="#CourierNewPSMT-61" x="720.117188"/>
      <use xlink:href="#CourierNewPSMT-62" x="780.126953"/>
      <use xlink:href="#CourierNewPSMT-69" x="840.136719"/>
      <use xlink:href="#CourierNewPSMT-6c" x="900.146484"/>
      <use xlink:href="#CourierNewPSMT-69" x="960.15625"/>
      <use xlink:href="#CourierNewPSMT-74" x="1020.166016"/>
      <use xlink:href="#CourierNewPSMT-79" x="1080.175781"/>
     </g>
    </g>
   </g>
   <g id="patch_3">
    <path d="M 63.733446 64.860068 
L 86.533566 64.860068 
L 86.533566 45.173696 
L 63.733446 45.173696 
L 63.733446 64.860068 
z
" clip-path="url(#p7ce2243636)" style="fill: #2ea890; stroke: #252525; stroke-width: 1.2; stroke-linejoin: miter"/>
   </g>
   <g id="patch_4">
    <path d="M 86.998875 326.101014 
L 109.798995 326.101014 
L 109.798995 317.973657 
L 86.998875 317.973657 
L 86.998875 326.101014 
z
" clip-path="url(#p7ce2243636)" style="fill: #d25d51; stroke: #252525; stroke-width: 1.2; stroke-linejoin: miter"/>
   </g>
   <g id="patch_5">
    <path d="M 110.264303 325.130153 
L 133.064423 325.130153 
L 133.064423 310.06979 
L 110.264303 310.06979 
L 110.264303 325.130153 
z
" clip-path="url(#p7ce2243636)" style="fill: #d7962e; stroke: #252525; stroke-width: 1.2; stroke-linejoin: miter"/>
   </g>
   <g id="patch_6">
    <path d="M 244.686779 323.851692 
L 267.486899 323.851692 
L 267.486899 298.227207 
L 244.686779 298.227207 
L 244.686779 323.851692 
z
" clip-path="url(#p7ce2243636)" style="fill: #2ea890; stroke: #252525; stroke-width: 1.2; stroke-linejoin: miter"/>
   </g>
   <g id="patch_7">
    <path d="M 267.952208 335.691572 
L 290.752328 335.691572 
L 290.752328 334.897641 
L 267.952208 334.897641 
L 267.952208 335.691572 
z
" clip-path="url(#p7ce2243636)" style="fill: #d25d51; stroke: #252525; stroke-width: 1.2; stroke-linejoin: miter"/>
   </g>
   <g id="patch_8">
    <path d="M 291.217636 335.493164 
L 314.017756 335.493164 
L 314.017756 334.499624 
L 291.217636 334.499624 
L 291.217636 335.493164 
z
" clip-path="url(#p7ce2243636)" style="fill: #d7962e; stroke: #252525; stroke-width: 1.2; stroke-linejoin: miter"/>
   </g>
   <g id="patch_9">
    <path d="M 314.483065 63.014471 
L 337.283185 63.014471 
L 337.283185 36.253308 
L 314.483065 36.253308 
L 314.483065 63.014471 
z
" clip-path="url(#p7ce2243636)" style="fill: #303e4c; stroke: #252525; stroke-width: 1.2; stroke-linejoin: miter"/>
   </g>
   <g id="patch_10">
    <path d="M 495.436398 313.001598 
L 518.236518 313.001598 
L 518.236518 248.093284 
L 495.436398 248.093284 
L 495.436398 313.001598 
z
" clip-path="url(#p7ce2243636)" style="fill: #303e4c; stroke: #252525; stroke-width: 1.2; stroke-linejoin: miter"/>
   </g>
   <g id="patch_11">
    <path d="M 518.701827 133.76237 
L 541.501947 133.76237 
L 541.501947 61.168873 
L 518.701827 61.168873 
L 518.701827 133.76237 
z
" clip-path="url(#p7ce2243636)" style="fill: #278f7b; stroke: #252525; stroke-width: 1.2; stroke-linejoin: miter"/>
   </g>
   <g id="patch_12">
    <path d="M 541.967255 322.763078 
L 564.767375 322.763078 
L 564.767375 316.514962 
L 541.967255 316.514962 
L 541.967255 322.763078 
z
" clip-path="url(#p7ce2243636)" style="fill: #ad483e; stroke: #252525; stroke-width: 1.2; stroke-linejoin: miter"/>
   </g>
   <g id="patch_13">
    <path d="M 565.232684 335.918892 
L 588.032804 335.918892 
L 588.032804 335.15087 
L 565.232684 335.15087 
L 565.232684 335.918892 
z
" clip-path="url(#p7ce2243636)" style="fill: #bd8429; stroke: #252525; stroke-width: 1.2; stroke-linejoin: miter"/>
   </g>
   <g id="patch_14">
    <path d="M 144.929792 336.470484 
L 144.929792 336.470484 
L 144.929792 336.470484 
L 144.929792 336.470484 
z
" clip-path="url(#p7ce2243636)" style="fill: #2ea890; stroke: #252525; stroke-width: 0.6; stroke-linejoin: miter"/>
   </g>
   <g id="patch_15">
    <path d="M 144.929792 336.470484 
L 144.929792 336.470484 
L 144.929792 336.470484 
L 144.929792 336.470484 
z
" clip-path="url(#p7ce2243636)" style="fill: #d25d51; stroke: #252525; stroke-width: 0.6; stroke-linejoin: miter"/>
   </g>
   <g id="patch_16">
    <path d="M 144.929792 336.470484 
L 144.929792 336.470484 
L 144.929792 336.470484 
L 144.929792 336.470484 
z
" clip-path="url(#p7ce2243636)" style="fill: #d7962e; stroke: #252525; stroke-width: 0.6; stroke-linejoin: miter"/>
   </g>
   <g id="patch_17">
    <path d="M 144.929792 336.470484 
L 144.929792 336.470484 
L 144.929792 336.470484 
L 144.929792 336.470484 
z
" clip-path="url(#p7ce2243636)" style="fill: #303e4c; stroke: #252525; stroke-width: 0.6; stroke-linejoin: miter"/>
   </g>
   <g id="patch_18">
    <path d="M 144.929792 336.470484 
L 144.929792 336.470484 
L 144.929792 336.470484 
L 144.929792 336.470484 
z
" clip-path="url(#p7ce2243636)" style="fill: #278f7b; stroke: #252525; stroke-width: 0.6; stroke-linejoin: miter"/>
   </g>
   <g id="patch_19">
    <path d="M 144.929792 336.470484 
L 144.929792 336.470484 
L 144.929792 336.470484 
L 144.929792 336.470484 
z
" clip-path="url(#p7ce2243636)" style="fill: #ad483e; stroke: #252525; stroke-width: 0.6; stroke-linejoin: miter"/>
   </g>
   <g id="patch_20">
    <path d="M 144.929792 336.470484 
L 144.929792 336.470484 
L 144.929792 336.470484 
L 144.929792 336.470484 
z
" clip-path="url(#p7ce2243636)" style="fill: #bd8429; stroke: #252525; stroke-width: 0.6; stroke-linejoin: miter"/>
   </g>
   <g id="line2d_13">
    <path d="M 75.133506 64.860068 
L 75.133506 94.389626 
" clip-path="url(#p7ce2243636)" style="fill: none; stroke: #252525; stroke-width: 1.2; stroke-linecap: square"/>
   </g>
   <g id="line2d_14">
    <path d="M 75.133506 45.173696 
L 75.133506 31.485515 
" clip-path="url(#p7ce2243636)" style="fill: none; stroke: #252525; stroke-width: 1.2; stroke-linecap: square"/>
   </g>
   <g id="line2d_15">
    <path d="M 69.433476 94.389626 
L 80.833536 94.389626 
" clip-path="url(#p7ce2243636)" style="fill: none; stroke: #252525; stroke-width: 1.2; stroke-linecap: square"/>
   </g>
   <g id="line2d_16">
    <path d="M 69.433476 31.485515 
L 80.833536 31.485515 
" clip-path="url(#p7ce2243636)" style="fill: none; stroke: #252525; stroke-width: 1.2; stroke-linecap: square"/>
   </g>
   <g id="line2d_17"/>
   <g id="line2d_18">
    <path d="M 98.398935 326.101014 
L 98.398935 331.981453 
" clip-path="url(#p7ce2243636)" style="fill: none; stroke: #252525; stroke-width: 1.2; stroke-linecap: square"/>
   </g>
   <g id="line2d_19">
    <path d="M 98.398935 317.973657 
L 98.398935 305.825877 
" clip-path="url(#p7ce2243636)" style="fill: none; stroke: #252525; stroke-width: 1.2; stroke-linecap: square"/>
   </g>
   <g id="line2d_20">
    <path d="M 92.698905 331.981453 
L 104.098965 331.981453 
" clip-path="url(#p7ce2243636)" style="fill: none; stroke: #252525; stroke-width: 1.2; stroke-linecap: square"/>
   </g>
   <g id="line2d_21">
    <path d="M 92.698905 305.825877 
L 104.098965 305.825877 
" clip-path="url(#p7ce2243636)" style="fill: none; stroke: #252525; stroke-width: 1.2; stroke-linecap: square"/>
   </g>
   <g id="line2d_22"/>
   <g id="line2d_23">
    <path d="M 121.664363 325.130153 
L 121.664363 331.049041 
" clip-path="url(#p7ce2243636)" style="fill: none; stroke: #252525; stroke-width: 1.2; stroke-linecap: square"/>
   </g>
   <g id="line2d_24">
    <path d="M 121.664363 310.06979 
L 121.664363 287.523703 
" clip-path="url(#p7ce2243636)" style="fill: none; stroke: #252525; stroke-width: 1.2; stroke-linecap: square"/>
   </g>
   <g id="line2d_25">
    <path d="M 115.964333 331.049041 
L 127.364393 331.049041 
" clip-path="url(#p7ce2243636)" style="fill: none; stroke: #252525; stroke-width: 1.2; stroke-linecap: square"/>
   </g>
   <g id="line2d_26">
    <path d="M 115.964333 287.523703 
L 127.364393 287.523703 
" clip-path="url(#p7ce2243636)" style="fill: none; stroke: #252525; stroke-width: 1.2; stroke-linecap: square"/>
   </g>
   <g id="line2d_27"/>
   <g id="line2d_28">
    <path d="M 256.086839 323.851692 
L 256.086839 335.795207 
" clip-path="url(#p7ce2243636)" style="fill: none; stroke: #252525; stroke-width: 1.2; stroke-linecap: square"/>
   </g>
   <g id="line2d_29">
    <path d="M 256.086839 298.227207 
L 256.086839 260.339591 
" clip-path="url(#p7ce2243636)" style="fill: none; stroke: #252525; stroke-width: 1.2; stroke-linecap: square"/>
   </g>
   <g id="line2d_30">
    <path d="M 250.386809 335.795207 
L 261.786869 335.795207 
" clip-path="url(#p7ce2243636)" style="fill: none; stroke: #252525; stroke-width: 1.2; stroke-linecap: square"/>
   </g>
   <g id="line2d_31">
    <path d="M 250.386809 260.339591 
L 261.786869 260.339591 
" clip-path="url(#p7ce2243636)" style="fill: none; stroke: #252525; stroke-width: 1.2; stroke-linecap: square"/>
   </g>
   <g id="line2d_32"/>
   <g id="line2d_33">
    <path d="M 279.352268 335.691572 
L 279.352268 336.327273 
" clip-path="url(#p7ce2243636)" style="fill: none; stroke: #252525; stroke-width: 1.2; stroke-linecap: square"/>
   </g>
   <g id="line2d_34">
    <path d="M 279.352268 334.897641 
L 279.352268 333.706894 
" clip-path="url(#p7ce2243636)" style="fill: none; stroke: #252525; stroke-width: 1.2; stroke-linecap: square"/>
   </g>
   <g id="line2d_35">
    <path d="M 273.652238 336.327273 
L 285.052298 336.327273 
" clip-path="url(#p7ce2243636)" style="fill: none; stroke: #252525; stroke-width: 1.2; stroke-linecap: square"/>
   </g>
   <g id="line2d_36">
    <path d="M 273.652238 333.706894 
L 285.052298 333.706894 
" clip-path="url(#p7ce2243636)" style="fill: none; stroke: #252525; stroke-width: 1.2; stroke-linecap: square"/>
   </g>
   <g id="line2d_37"/>
   <g id="line2d_38">
    <path d="M 302.617696 335.493164 
L 302.617696 336.154173 
" clip-path="url(#p7ce2243636)" style="fill: none; stroke: #252525; stroke-width: 1.2; stroke-linecap: square"/>
   </g>
   <g id="line2d_39">
    <path d="M 302.617696 334.499624 
L 302.617696 333.012392 
" clip-path="url(#p7ce2243636)" style="fill: none; stroke: #252525; stroke-width: 1.2; stroke-linecap: square"/>
   </g>
   <g id="line2d_40">
    <path d="M 296.917666 336.154173 
L 308.317726 336.154173 
" clip-path="url(#p7ce2243636)" style="fill: none; stroke: #252525; stroke-width: 1.2; stroke-linecap: square"/>
   </g>
   <g id="line2d_41">
    <path d="M 296.917666 333.012392 
L 308.317726 333.012392 
" clip-path="url(#p7ce2243636)" style="fill: none; stroke: #252525; stroke-width: 1.2; stroke-linecap: square"/>
   </g>
   <g id="line2d_42"/>
   <g id="line2d_43">
    <path d="M 325.883125 63.014471 
L 325.883125 103.002414 
" clip-path="url(#p7ce2243636)" style="fill: none; stroke: #252525; stroke-width: 1.2; stroke-linecap: square"/>
   </g>
   <g id="line2d_44">
    <path d="M 325.883125 36.253308 
L 325.883125 22.872727 
" clip-path="url(#p7ce2243636)" style="fill: none; stroke: #252525; stroke-width: 1.2; stroke-linecap: square"/>
   </g>
   <g id="line2d_45">
    <path d="M 320.183095 103.002414 
L 331.583155 103.002414 
" clip-path="url(#p7ce2243636)" style="fill: none; stroke: #252525; stroke-width: 1.2; stroke-linecap: square"/>
   </g>
   <g id="line2d_46">
    <path d="M 320.183095 22.872727 
L 331.583155 22.872727 
" clip-path="url(#p7ce2243636)" style="fill: none; stroke: #252525; stroke-width: 1.2; stroke-linecap: square"/>
   </g>
   <g id="line2d_47"/>
   <g id="line2d_48">
    <path d="M 506.836458 313.001598 
L 506.836458 331.270129 
" clip-path="url(#p7ce2243636)" style="fill: none; stroke: #252525; stroke-width: 1.2; stroke-linecap: square"/>
   </g>
   <g id="line2d_49">
    <path d="M 506.836458 248.093284 
L 506.836458 150.680347 
" clip-path="url(#p7ce2243636)" style="fill: none; stroke: #252525; stroke-width: 1.2; stroke-linecap: square"/>
   </g>
   <g id="line2d_50">
    <path d="M 501.136428 331.270129 
L 512.536488 331.270129 
" clip-path="url(#p7ce2243636)" style="fill: none; stroke: #252525; stroke-width: 1.2; stroke-linecap: square"/>
   </g>
   <g id="line2d_51">
    <path d="M 501.136428 150.680347 
L 512.536488 150.680347 
" clip-path="url(#p7ce2243636)" style="fill: none; stroke: #252525; stroke-width: 1.2; stroke-linecap: square"/>
   </g>
   <g id="line2d_52"/>
   <g id="line2d_53">
    <path d="M 530.101887 133.76237 
L 530.101887 242.652616 
" clip-path="url(#p7ce2243636)" style="fill: none; stroke: #252525; stroke-width: 1.2; stroke-linecap: square"/>
   </g>
   <g id="line2d_54">
    <path d="M 530.101887 61.168873 
L 530.101887 39.944503 
" clip-path="url(#p7ce2243636)" style="fill: none; stroke: #252525; stroke-width: 1.2; stroke-linecap: square"/>
   </g>
   <g id="line2d_55">
    <path d="M 524.401857 242.652616 
L 535.801917 242.652616 
" clip-path="url(#p7ce2243636)" style="fill: none; stroke: #252525; stroke-width: 1.2; stroke-linecap: square"/>
   </g>
   <g id="line2d_56">
    <path d="M 524.401857 39.944503 
L 535.801917 39.944503 
" clip-path="url(#p7ce2243636)" style="fill: none; stroke: #252525; stroke-width: 1.2; stroke-linecap: square"/>
   </g>
   <g id="line2d_57"/>
   <g id="line2d_58">
    <path d="M 553.367315 322.763078 
L 553.367315 331.964631 
" clip-path="url(#p7ce2243636)" style="fill: none; stroke: #252525; stroke-width: 1.2; stroke-linecap: square"/>
   </g>
   <g id="line2d_59">
    <path d="M 553.367315 316.514962 
L 553.367315 307.171625 
" clip-path="url(#p7ce2243636)" style="fill: none; stroke: #252525; stroke-width: 1.2; stroke-linecap: square"/>
   </g>
   <g id="line2d_60">
    <path d="M 547.667285 331.964631 
L 559.067345 331.964631 
" clip-path="url(#p7ce2243636)" style="fill: none; stroke: #252525; stroke-width: 1.2; stroke-linecap: square"/>
   </g>
   <g id="line2d_61">
    <path d="M 547.667285 307.171625 
L 559.067345 307.171625 
" clip-path="url(#p7ce2243636)" style="fill: none; stroke: #252525; stroke-width: 1.2; stroke-linecap: square"/>
   </g>
   <g id="line2d_62"/>
   <g id="line2d_63">
    <path d="M 576.632744 335.918892 
L 576.632744 336.321565 
" clip-path="url(#p7ce2243636)" style="fill: none; stroke: #252525; stroke-width: 1.2; stroke-linecap: square"/>
   </g>
   <g id="line2d_64">
    <path d="M 576.632744 335.15087 
L 576.632744 333.997672 
" clip-path="url(#p7ce2243636)" style="fill: none; stroke: #252525; stroke-width: 1.2; stroke-linecap: square"/>
   </g>
   <g id="line2d_65">
    <path d="M 570.932714 336.321565 
L 582.332774 336.321565 
" clip-path="url(#p7ce2243636)" style="fill: none; stroke: #252525; stroke-width: 1.2; stroke-linecap: square"/>
   </g>
   <g id="line2d_66">
    <path d="M 570.932714 333.997672 
L 582.332774 333.997672 
" clip-path="url(#p7ce2243636)" style="fill: none; stroke: #252525; stroke-width: 1.2; stroke-linecap: square"/>
   </g>
   <g id="line2d_67"/>
   <g id="line2d_68">
    <path d="M 63.733446 51.633287 
L 86.533566 51.633287 
" clip-path="url(#p7ce2243636)" style="fill: none; stroke: #252525; stroke-width: 1.2; stroke-linecap: square"/>
   </g>
   <g id="line2d_69">
    <path d="M 86.998875 322.916878 
L 109.798995 322.916878 
" clip-path="url(#p7ce2243636)" style="fill: none; stroke: #252525; stroke-width: 1.2; stroke-linecap: square"/>
   </g>
   <g id="line2d_70">
    <path d="M 110.264303 320.158094 
L 133.064423 320.158094 
" clip-path="url(#p7ce2243636)" style="fill: none; stroke: #252525; stroke-width: 1.2; stroke-linecap: square"/>
   </g>
   <g id="line2d_71">
    <path d="M 244.686779 312.29508 
L 267.486899 312.29508 
" clip-path="url(#p7ce2243636)" style="fill: none; stroke: #252525; stroke-width: 1.2; stroke-linecap: square"/>
   </g>
   <g id="line2d_72">
    <path d="M 267.952208 335.331104 
L 290.752328 335.331104 
" clip-path="url(#p7ce2243636)" style="fill: none; stroke: #252525; stroke-width: 1.2; stroke-linecap: square"/>
   </g>
   <g id="line2d_73">
    <path d="M 291.217636 335.065859 
L 314.017756 335.065859 
" clip-path="url(#p7ce2243636)" style="fill: none; stroke: #252525; stroke-width: 1.2; stroke-linecap: square"/>
   </g>
   <g id="line2d_74">
    <path d="M 314.483065 48.557291 
L 337.283185 48.557291 
" clip-path="url(#p7ce2243636)" style="fill: none; stroke: #252525; stroke-width: 1.2; stroke-linecap: square"/>
   </g>
   <g id="line2d_75">
    <path d="M 495.436398 295.713541 
L 518.236518 295.713541 
" clip-path="url(#p7ce2243636)" style="fill: none; stroke: #252525; stroke-width: 1.2; stroke-linecap: square"/>
   </g>
   <g id="line2d_76">
    <path d="M 518.701827 80.547646 
L 541.501947 80.547646 
" clip-path="url(#p7ce2243636)" style="fill: none; stroke: #252525; stroke-width: 1.2; stroke-linecap: square"/>
   </g>
   <g id="line2d_77">
    <path d="M 541.967255 320.153288 
L 564.767375 320.153288 
" clip-path="url(#p7ce2243636)" style="fill: none; stroke: #252525; stroke-width: 1.2; stroke-linecap: square"/>
   </g>
   <g id="line2d_78">
    <path d="M 565.232684 335.622482 
L 588.032804 335.622482 
" clip-path="url(#p7ce2243636)" style="fill: none; stroke: #252525; stroke-width: 1.2; stroke-linecap: square"/>
   </g>
   <g id="patch_21">
    <path d="M 54.453125 352 
L 54.453125 7.2 
" style="fill: none; stroke: #808080; stroke-width: 2; stroke-linejoin: miter; stroke-linecap: square"/>
   </g>
   <g id="patch_22">
    <path d="M 54.453125 352 
L 597.313125 352 
" style="fill: none; stroke: #808080; stroke-width: 2; stroke-linejoin: miter; stroke-linecap: square"/>
   </g>
   <g id="legend_1">
    <g id="patch_23">
     <path d="M 53.838125 377.6 
L 85.838125 377.6 
L 85.838125 366.4 
L 53.838125 366.4 
z
" style="fill: #2ea890; stroke: #252525; stroke-width: 0.6; stroke-linejoin: miter"/>
    </g>
    <g id="text_8">
     <!-- a circle -->
     <g transform="translate(98.638125 377.6) scale(0.16 -0.16)">
      <defs>
       <path id="CourierNewPSMT-63" d="M 3016 2441 
L 3016 2528 
Q 3016 2625 3053 2665 
Q 3091 2706 3147 2706 
Q 3206 2706 3243 2665 
Q 3281 2625 3281 2528 
L 3281 1934 
Q 3278 1838 3242 1797 
Q 3206 1756 3147 1756 
Q 3094 1756 3058 1792 
Q 3022 1828 3016 1913 
Q 2997 2134 2723 2334 
Q 2450 2534 1988 2534 
Q 1403 2534 1100 2168 
Q 797 1803 797 1331 
Q 797 822 1131 490 
Q 1466 159 1997 159 
Q 2303 159 2620 271 
Q 2938 384 3194 634 
Q 3259 697 3309 697 
Q 3363 697 3398 661 
Q 3434 625 3434 572 
Q 3434 438 3119 231 
Q 2609 -103 1984 -103 
Q 1350 -103 942 301 
Q 534 706 534 1328 
Q 534 1963 951 2381 
Q 1369 2800 2003 2800 
Q 2606 2800 3016 2441 
z
" transform="scale(0.015625)"/>
      </defs>
      <use xlink:href="#CourierNewPSMT-61"/>
      <use xlink:href="#CourierNewPSMT-20" x="60.009766"/>
      <use xlink:href="#CourierNewPSMT-63" x="120.019531"/>
      <use xlink:href="#CourierNewPSMT-69" x="180.029297"/>
      <use xlink:href="#CourierNewPSMT-72" x="240.039062"/>
      <use xlink:href="#CourierNewPSMT-63" x="300.048828"/>
      <use xlink:href="#CourierNewPSMT-6c" x="360.058594"/>
      <use xlink:href="#CourierNewPSMT-65" x="420.068359"/>
     </g>
    </g>
    <g id="patch_24">
     <path d="M 53.838125 399.815 
L 85.838125 399.815 
L 85.838125 388.615 
L 53.838125 388.615 
z
" style="fill: #d25d51; stroke: #252525; stroke-width: 0.6; stroke-linejoin: miter"/>
    </g>
    <g id="text_9">
     <!-- a square -->
     <g transform="translate(98.638125 399.815) scale(0.16 -0.16)">
      <defs>
       <path id="CourierNewPSMT-73" d="M 2788 2534 
Q 2788 2625 2825 2665 
Q 2863 2706 2919 2706 
Q 2978 2706 3015 2665 
Q 3053 2625 3053 2528 
L 3053 2078 
Q 3053 1984 3015 1943 
Q 2978 1903 2919 1903 
Q 2866 1903 2830 1937 
Q 2794 1972 2788 2050 
Q 2769 2238 2594 2359 
Q 2338 2534 1916 2534 
Q 1475 2534 1231 2356 
Q 1047 2222 1047 2056 
Q 1047 1869 1266 1744 
Q 1416 1656 1834 1609 
Q 2381 1550 2594 1475 
Q 2897 1366 3045 1172 
Q 3194 978 3194 753 
Q 3194 419 2872 158 
Q 2550 -103 1928 -103 
Q 1306 -103 909 213 
Q 909 106 896 75 
Q 884 44 851 22 
Q 819 0 778 0 
Q 722 0 684 40 
Q 647 81 647 175 
L 647 716 
Q 647 809 683 850 
Q 719 891 778 891 
Q 834 891 873 852 
Q 913 813 913 747 
Q 913 603 984 506 
Q 1094 356 1333 257 
Q 1572 159 1919 159 
Q 2431 159 2681 350 
Q 2931 541 2931 753 
Q 2931 997 2678 1144 
Q 2422 1291 1933 1341 
Q 1444 1391 1231 1472 
Q 1019 1553 900 1715 
Q 781 1878 781 2066 
Q 781 2403 1112 2601 
Q 1444 2800 1903 2800 
Q 2447 2800 2788 2534 
z
" transform="scale(0.015625)"/>
       <path id="CourierNewPSMT-71" d="M 2938 2228 
L 2938 2706 
L 3553 2706 
Q 3650 2706 3690 2668 
Q 3731 2631 3731 2572 
Q 3731 2516 3690 2478 
Q 3650 2441 3553 2441 
L 3203 2441 
L 3203 -944 
L 3553 -944 
Q 3650 -944 3690 -980 
Q 3731 -1016 3731 -1075 
Q 3731 -1131 3690 -1168 
Q 3650 -1206 3553 -1206 
L 2303 -1206 
Q 2209 -1206 2168 -1170 
Q 2128 -1134 2128 -1075 
Q 2128 -1016 2168 -980 
Q 2209 -944 2303 -944 
L 2938 -944 
L 2938 638 
Q 2503 66 1797 66 
Q 1209 66 804 467 
Q 400 869 400 1434 
Q 400 2003 804 2401 
Q 1209 2800 1803 2800 
Q 2503 2800 2938 2228 
z
M 2938 1434 
Q 2938 1888 2606 2211 
Q 2275 2534 1800 2534 
Q 1325 2534 994 2211 
Q 663 1888 663 1434 
Q 663 981 994 656 
Q 1325 331 1800 331 
Q 2275 331 2606 656 
Q 2938 981 2938 1434 
z
" transform="scale(0.015625)"/>
       <path id="CourierNewPSMT-75" d="M 2819 0 
L 2819 384 
Q 2281 -103 1656 -103 
Q 1272 -103 1072 106 
Q 813 381 813 747 
L 813 2441 
L 459 2441 
Q 366 2441 325 2478 
Q 284 2516 284 2575 
Q 284 2631 325 2668 
Q 366 2706 459 2706 
L 1075 2706 
L 1075 747 
Q 1075 491 1237 325 
Q 1400 159 1644 159 
Q 2284 159 2819 747 
L 2819 2441 
L 2334 2441 
Q 2241 2441 2200 2478 
Q 2159 2516 2159 2575 
Q 2159 2631 2200 2668 
Q 2241 2706 2334 2706 
L 3081 2706 
L 3081 263 
L 3303 263 
Q 3397 263 3437 227 
Q 3478 191 3478 131 
Q 3478 75 3437 37 
Q 3397 0 3303 0 
L 2819 0 
z
" transform="scale(0.015625)"/>
      </defs>
      <use xlink:href="#CourierNewPSMT-61"/>
      <use xlink:href="#CourierNewPSMT-20" x="60.009766"/>
      <use xlink:href="#CourierNewPSMT-73" x="120.019531"/>
      <use xlink:href="#CourierNewPSMT-71" x="180.029297"/>
      <use xlink:href="#CourierNewPSMT-75" x="240.039062"/>
      <use xlink:href="#CourierNewPSMT-61" x="300.048828"/>
      <use xlink:href="#CourierNewPSMT-72" x="360.058594"/>
      <use xlink:href="#CourierNewPSMT-65" x="420.068359"/>
     </g>
    </g>
    <g id="patch_25">
     <path d="M 207.458125 377.6 
L 239.458125 377.6 
L 239.458125 366.4 
L 207.458125 366.4 
z
" style="fill: #d7962e; stroke: #252525; stroke-width: 0.6; stroke-linejoin: miter"/>
    </g>
    <g id="text_10">
     <!-- a triangle -->
     <g transform="translate(252.258125 377.6) scale(0.16 -0.16)">
      <defs>
       <path id="CourierNewPSMT-6e" d="M 1072 2706 
L 1072 2309 
Q 1347 2588 1569 2694 
Q 1791 2800 2069 2800 
Q 2369 2800 2616 2672 
Q 2791 2578 2933 2361 
Q 3075 2144 3075 1916 
L 3075 263 
L 3297 263 
Q 3391 263 3431 227 
Q 3472 191 3472 131 
Q 3472 75 3431 37 
Q 3391 0 3297 0 
L 2594 0 
Q 2497 0 2456 37 
Q 2416 75 2416 131 
Q 2416 191 2456 227 
Q 2497 263 2594 263 
L 2813 263 
L 2813 1872 
Q 2813 2150 2609 2342 
Q 2406 2534 2066 2534 
Q 1806 2534 1615 2429 
Q 1425 2325 1072 1909 
L 1072 263 
L 1369 263 
Q 1463 263 1503 227 
Q 1544 191 1544 131 
Q 1544 75 1503 37 
Q 1463 0 1369 0 
L 513 0 
Q 419 0 378 37 
Q 338 75 338 131 
Q 338 191 378 227 
Q 419 263 513 263 
L 809 263 
L 809 2441 
L 588 2441 
Q 494 2441 453 2478 
Q 413 2516 413 2575 
Q 413 2631 453 2668 
Q 494 2706 588 2706 
L 1072 2706 
z
" transform="scale(0.015625)"/>
      </defs>
      <use xlink:href="#CourierNewPSMT-61"/>
      <use xlink:href="#CourierNewPSMT-20" x="60.009766"/>
      <use xlink:href="#CourierNewPSMT-74" x="120.019531"/>
      <use xlink:href="#CourierNewPSMT-72" x="180.029297"/>
      <use xlink:href="#CourierNewPSMT-69" x="240.039062"/>
      <use xlink:href="#CourierNewPSMT-61" x="300.048828"/>
      <use xlink:href="#CourierNewPSMT-6e" x="360.058594"/>
      <use xlink:href="#CourierNewPSMT-67" x="420.068359"/>
      <use xlink:href="#CourierNewPSMT-6c" x="480.078125"/>
      <use xlink:href="#CourierNewPSMT-65" x="540.087891"/>
     </g>
    </g>
    <g id="patch_26">
     <path d="M 207.458125 399.815 
L 239.458125 399.815 
L 239.458125 388.615 
L 207.458125 388.615 
z
" style="fill: #303e4c; stroke: #252525; stroke-width: 0.6; stroke-linejoin: miter"/>
    </g>
    <g id="text_11">
     <!-- an empty image -->
     <g transform="translate(252.258125 399.815) scale(0.16 -0.16)">
      <defs>
       <path id="CourierNewPSMT-6d" d="M 725 2706 
L 725 2441 
Q 1059 2800 1397 2800 
Q 1600 2800 1753 2692 
Q 1906 2584 2009 2366 
Q 2184 2584 2364 2692 
Q 2544 2800 2725 2800 
Q 3009 2800 3178 2616 
Q 3400 2378 3400 2097 
L 3400 263 
L 3622 263 
Q 3716 263 3756 227 
Q 3797 191 3797 131 
Q 3797 75 3756 37 
Q 3716 0 3622 0 
L 3138 0 
L 3138 2072 
Q 3138 2272 3016 2403 
Q 2894 2534 2734 2534 
Q 2591 2534 2431 2426 
Q 2272 2319 2069 2003 
L 2069 263 
L 2288 263 
Q 2381 263 2422 227 
Q 2463 191 2463 131 
Q 2463 75 2422 37 
Q 2381 0 2288 0 
L 1803 0 
L 1803 2053 
Q 1803 2263 1679 2398 
Q 1556 2534 1403 2534 
Q 1263 2534 1125 2444 
Q 934 2316 725 2003 
L 725 263 
L 947 263 
Q 1041 263 1081 227 
Q 1122 191 1122 131 
Q 1122 75 1081 37 
Q 1041 0 947 0 
L 241 0 
Q 147 0 106 37 
Q 66 75 66 131 
Q 66 191 106 227 
Q 147 263 241 263 
L 463 263 
L 463 2441 
L 241 2441 
Q 147 2441 106 2478 
Q 66 2516 66 2575 
Q 66 2631 106 2668 
Q 147 2706 241 2706 
L 725 2706 
z
" transform="scale(0.015625)"/>
      </defs>
      <use xlink:href="#CourierNewPSMT-61"/>
      <use xlink:href="#CourierNewPSMT-6e" x="60.009766"/>
      <use xlink:href="#CourierNewPSMT-20" x="120.019531"/>
      <use xlink:href="#CourierNewPSMT-65" x="180.029297"/>
      <use xlink:href="#CourierNewPSMT-6d" x="240.039062"/>
      <use xlink:href="#CourierNewPSMT-70" x="300.048828"/>
      <use xlink:href="#CourierNewPSMT-74" x="360.058594"/>
      <use xlink:href="#CourierNewPSMT-79" x="420.068359"/>
      <use xlink:href="#CourierNewPSMT-20" x="480.078125"/>
      <use xlink:href="#CourierNewPSMT-69" x="540.087891"/>
      <use xlink:href="#CourierNewPSMT-6d" x="600.097656"/>
      <use xlink:href="#CourierNewPSMT-61" x="660.107422"/>
      <use xlink:href="#CourierNewPSMT-67" x="720.117188"/>
      <use xlink:href="#CourierNewPSMT-65" x="780.126953"/>
     </g>
    </g>
    <g id="patch_27">
     <path d="M 418.693125 377.6 
L 450.693125 377.6 
L 450.693125 366.4 
L 418.693125 366.4 
z
" style="fill: #278f7b; stroke: #252525; stroke-width: 0.6; stroke-linejoin: miter"/>
    </g>
    <g id="text_12">
     <!-- a black circle -->
     <g transform="translate(463.493125 377.6) scale(0.16 -0.16)">
      <defs>
       <path id="CourierNewPSMT-6b" d="M 1388 1169 
L 1388 0 
L 772 0 
Q 678 0 637 37 
Q 597 75 597 131 
Q 597 191 637 227 
Q 678 263 772 263 
L 1125 263 
L 1125 3656 
L 772 3656 
Q 678 3656 637 3693 
Q 597 3731 597 3791 
Q 597 3847 637 3884 
Q 678 3922 772 3922 
L 1388 3922 
L 1388 1503 
L 2503 2441 
L 2369 2441 
Q 2275 2441 2234 2478 
Q 2194 2516 2194 2572 
Q 2194 2631 2234 2668 
Q 2275 2706 2369 2706 
L 3209 2706 
Q 3306 2706 3347 2668 
Q 3388 2631 3388 2572 
Q 3388 2516 3347 2478 
Q 3306 2441 3209 2441 
L 2906 2441 
L 1881 1584 
L 3178 263 
L 3481 263 
Q 3578 263 3618 227 
Q 3659 191 3659 131 
Q 3659 75 3618 37 
Q 3578 0 3481 0 
L 2631 0 
Q 2538 0 2497 37 
Q 2456 75 2456 131 
Q 2456 191 2497 227 
Q 2538 263 2631 263 
L 2816 263 
L 1688 1422 
L 1388 1169 
z
" transform="scale(0.015625)"/>
      </defs>
      <use xlink:href="#CourierNewPSMT-61"/>
      <use xlink:href="#CourierNewPSMT-20" x="60.009766"/>
      <use xlink:href="#CourierNewPSMT-62" x="120.019531"/>
      <use xlink:href="#CourierNewPSMT-6c" x="180.029297"/>
      <use xlink:href="#CourierNewPSMT-61" x="240.039062"/>
      <use xlink:href="#CourierNewPSMT-63" x="300.048828"/>
      <use xlink:href="#CourierNewPSMT-6b" x="360.058594"/>
      <use xlink:href="#CourierNewPSMT-20" x="420.068359"/>
      <use xlink:href="#CourierNewPSMT-63" x="480.078125"/>
      <use xlink:href="#CourierNewPSMT-69" x="540.087891"/>
      <use xlink:href="#CourierNewPSMT-72" x="600.097656"/>
      <use xlink:href="#CourierNewPSMT-63" x="660.107422"/>
      <use xlink:href="#CourierNewPSMT-6c" x="720.117188"/>
      <use xlink:href="#CourierNewPSMT-65" x="780.126953"/>
     </g>
    </g>
    <g id="patch_28">
     <path d="M 418.693125 399.815 
L 450.693125 399.815 
L 450.693125 388.615 
L 418.693125 388.615 
z
" style="fill: #ad483e; stroke: #252525; stroke-width: 0.6; stroke-linejoin: miter"/>
    </g>
    <g id="text_13">
     <!-- a black square -->
     <g transform="translate(463.493125 399.815) scale(0.16 -0.16)">
      <use xlink:href="#CourierNewPSMT-61"/>
      <use xlink:href="#CourierNewPSMT-20" x="60.009766"/>
      <use xlink:href="#CourierNewPSMT-62" x="120.019531"/>
      <use xlink:href="#CourierNewPSMT-6c" x="180.029297"/>
      <use xlink:href="#CourierNewPSMT-61" x="240.039062"/>
      <use xlink:href="#CourierNewPSMT-63" x="300.048828"/>
      <use xlink:href="#CourierNewPSMT-6b" x="360.058594"/>
      <use xlink:href="#CourierNewPSMT-20" x="420.068359"/>
      <use xlink:href="#CourierNewPSMT-73" x="480.078125"/>
      <use xlink:href="#CourierNewPSMT-71" x="540.087891"/>
      <use xlink:href="#CourierNewPSMT-75" x="600.097656"/>
      <use xlink:href="#CourierNewPSMT-61" x="660.107422"/>
      <use xlink:href="#CourierNewPSMT-72" x="720.117188"/>
      <use xlink:href="#CourierNewPSMT-65" x="780.126953"/>
     </g>
    </g>
   </g>
  </g>
 </g>
 <defs>
  <clipPath id="p7ce2243636">
   <rect x="54.453125" y="7.2" width="542.86" height="344.8"/>
  </clipPath>
 </defs>
</svg>
