<?xml version="1.0" encoding="utf-8" standalone="no"?>
<!DOCTYPE svg PUBLIC "-//W3C//DTD SVG 1.1//EN"
  "http://www.w3.org/Graphics/SVG/1.1/DTD/svg11.dtd">
<svg xmlns:xlink="http://www.w3.org/1999/xlink" width="506.123125pt" height="384.335938pt" viewBox="0 0 506.123125 384.335938" xmlns="http://www.w3.org/2000/svg" version="1.1">
 <metadata>
  <rdf:RDF xmlns:dc="http://purl.org/dc/elements/1.1/" xmlns:cc="http://creativecommons.org/ns#" xmlns:rdf="http://www.w3.org/1999/02/22-rdf-syntax-ns#">
   <cc:Work>
    <dc:type rdf:resource="http://purl.org/dc/dcmitype/StillImage"/>
    <dc:date>2023-10-17T15:57:02.419830</dc:date>
    <dc:format>image/svg+xml</dc:format>
    <dc:creator>
     <cc:Agent>
      <dc:title>Matplotlib v3.7.1, https://matplotlib.org/</dc:title>
     </cc:Agent>
    </dc:creator>
   </cc:Work>
  </rdf:RDF>
 </metadata>
 <defs>
  <style type="text/css">*{stroke-linejoin: round; stroke-linecap: butt}</style>
 </defs>
 <g id="figure_1">
  <g id="patch_1">
   <path d="M 0 384.335938 
L 506.123125 384.335938 
L 506.123125 0 
L 0 0 
L 0 384.335938 
z
" style="fill: none"/>
  </g>
  <g id="axes_1">
   <g id="patch_2">
    <path d="M 52.523125 343.516875 
L 498.923125 343.516875 
L 498.923125 10.876875 
L 52.523125 10.876875 
L 52.523125 343.516875 
z
" style="fill: none"/>
   </g>
   <g id="matplotlib.axis_1">
    <g id="xtick_1">
     <g id="line2d_1">
      <path d="M 72.814034 343.516875 
L 72.814034 10.876875 
" clip-path="url(#p741ec6253b)" style="fill: none; stroke-dasharray: 1.85,0.8; stroke-dashoffset: 0; stroke: #d3d3d3; stroke-width: 0.5"/>
     </g>
     <g id="line2d_2">
      <defs>
       <path id="m16638fcef2" d="M 0 0 
L 0 5 
" style="stroke: #000000; stroke-width: 0.8"/>
      </defs>
      <g>
       <use xlink:href="#m16638fcef2" x="72.814034" y="343.516875" style="stroke: #000000; stroke-width: 0.8"/>
      </g>
     </g>
     <g id="text_1">
      <!-- 0.0 -->
      <g transform="translate(62.011222 359.370625) scale(0.12 -0.12)">
       <defs>
        <path id="CourierNewPSMT-30" d="M 3125 2284 
L 3125 1634 
Q 3125 788 2722 294 
Q 2406 -94 1925 -94 
Q 1694 -94 1489 -1 
Q 1284 91 1141 256 
Q 1050 359 942 587 
Q 834 816 788 1006 
Q 716 1275 716 1634 
L 716 2284 
Q 716 3134 1119 3628 
Q 1434 4016 1916 4016 
Q 2150 4016 2353 3923 
Q 2556 3831 2700 3666 
Q 2794 3559 2900 3331 
Q 3006 3103 3056 2916 
Q 3125 2647 3125 2284 
z
M 2863 2250 
Q 2863 2622 2758 2942 
Q 2653 3263 2522 3453 
Q 2444 3563 2319 3641 
Q 2141 3750 1919 3750 
Q 1478 3750 1228 3300 
Q 978 2850 978 2250 
L 978 1672 
Q 978 1300 1083 978 
Q 1188 656 1322 466 
Q 1397 359 1522 281 
Q 1700 169 1925 169 
Q 2363 169 2613 620 
Q 2863 1072 2863 1672 
L 2863 2250 
z
" transform="scale(0.015625)"/>
        <path id="CourierNewPSMT-2e" d="M 1866 753 
L 1978 753 
Q 2153 753 2278 629 
Q 2403 506 2403 331 
Q 2403 150 2276 28 
Q 2150 -94 1978 -94 
L 1866 -94 
Q 1691 -94 1566 29 
Q 1441 153 1441 328 
Q 1441 509 1567 631 
Q 1694 753 1866 753 
z
" transform="scale(0.015625)"/>
       </defs>
       <use xlink:href="#CourierNewPSMT-30"/>
       <use xlink:href="#CourierNewPSMT-2e" x="60.009766"/>
       <use xlink:href="#CourierNewPSMT-30" x="120.019531"/>
      </g>
     </g>
    </g>
    <g id="xtick_2">
     <g id="line2d_3">
      <path d="M 153.97767 343.516875 
L 153.97767 10.876875 
" clip-path="url(#p741ec6253b)" style="fill: none; stroke-dasharray: 1.85,0.8; stroke-dashoffset: 0; stroke: #d3d3d3; stroke-width: 0.5"/>
     </g>
     <g id="line2d_4">
      <g>
       <use xlink:href="#m16638fcef2" x="153.97767" y="343.516875" style="stroke: #000000; stroke-width: 0.8"/>
      </g>
     </g>
     <g id="text_2">
      <!-- 0.2 -->
      <g transform="translate(143.174858 359.370625) scale(0.12 -0.12)">
       <defs>
        <path id="CourierNewPSMT-32" d="M 791 263 
L 2806 263 
L 2806 366 
Q 2806 459 2843 500 
Q 2881 541 2941 541 
Q 2997 541 3034 500 
Q 3072 459 3072 366 
L 3072 0 
L 534 0 
L 534 388 
Q 1334 1106 2091 1850 
Q 2444 2197 2575 2359 
Q 2706 2522 2754 2645 
Q 2803 2769 2803 2894 
Q 2803 3231 2531 3490 
Q 2259 3750 1875 3750 
Q 1531 3750 1265 3553 
Q 1000 3356 922 3066 
Q 903 2991 875 2969 
Q 838 2938 788 2938 
Q 734 2938 698 2973 
Q 663 3009 663 3059 
Q 663 3209 827 3465 
Q 991 3722 1280 3869 
Q 1569 4016 1872 4016 
Q 2363 4016 2716 3675 
Q 3069 3334 3069 2903 
Q 3069 2722 3009 2570 
Q 2950 2419 2808 2239 
Q 2666 2059 2297 1697 
Q 1372 784 791 281 
L 791 263 
z
" transform="scale(0.015625)"/>
       </defs>
       <use xlink:href="#CourierNewPSMT-30"/>
       <use xlink:href="#CourierNewPSMT-2e" x="60.009766"/>
       <use xlink:href="#CourierNewPSMT-32" x="120.019531"/>
      </g>
     </g>
    </g>
    <g id="xtick_3">
     <g id="line2d_5">
      <path d="M 235.141307 343.516875 
L 235.141307 10.876875 
" clip-path="url(#p741ec6253b)" style="fill: none; stroke-dasharray: 1.85,0.8; stroke-dashoffset: 0; stroke: #d3d3d3; stroke-width: 0.5"/>
     </g>
     <g id="line2d_6">
      <g>
       <use xlink:href="#m16638fcef2" x="235.141307" y="343.516875" style="stroke: #000000; stroke-width: 0.8"/>
      </g>
     </g>
     <g id="text_3">
      <!-- 0.4 -->
      <g transform="translate(224.338494 359.370625) scale(0.12 -0.12)">
       <defs>
        <path id="CourierNewPSMT-34" d="M 2409 1097 
L 669 1097 
L 669 1400 
L 2128 3922 
L 2675 3922 
L 2675 1359 
L 2894 1359 
Q 2991 1359 3031 1323 
Q 3072 1288 3072 1228 
Q 3072 1172 3031 1134 
Q 2991 1097 2894 1097 
L 2675 1097 
L 2675 263 
L 2894 263 
Q 2991 263 3031 227 
Q 3072 191 3072 131 
Q 3072 75 3031 37 
Q 2991 0 2894 0 
L 1919 0 
Q 1822 0 1781 37 
Q 1741 75 1741 131 
Q 1741 191 1781 227 
Q 1822 263 1919 263 
L 2409 263 
L 2409 1097 
z
M 2409 1359 
L 2409 3656 
L 2272 3656 
L 944 1359 
L 2409 1359 
z
" transform="scale(0.015625)"/>
       </defs>
       <use xlink:href="#CourierNewPSMT-30"/>
       <use xlink:href="#CourierNewPSMT-2e" x="60.009766"/>
       <use xlink:href="#CourierNewPSMT-34" x="120.019531"/>
      </g>
     </g>
    </g>
    <g id="xtick_4">
     <g id="line2d_7">
      <path d="M 316.304943 343.516875 
L 316.304943 10.876875 
" clip-path="url(#p741ec6253b)" style="fill: none; stroke-dasharray: 1.85,0.8; stroke-dashoffset: 0; stroke: #d3d3d3; stroke-width: 0.5"/>
     </g>
     <g id="line2d_8">
      <g>
       <use xlink:href="#m16638fcef2" x="316.304943" y="343.516875" style="stroke: #000000; stroke-width: 0.8"/>
      </g>
     </g>
     <g id="text_4">
      <!-- 0.6 -->
      <g transform="translate(305.502131 359.370625) scale(0.12 -0.12)">
       <defs>
        <path id="CourierNewPSMT-36" d="M 1138 1659 
Q 1381 2019 1639 2191 
Q 1897 2363 2213 2363 
Q 2631 2363 2956 2014 
Q 3281 1666 3281 1153 
Q 3281 684 2984 295 
Q 2688 -94 2166 -94 
Q 1825 -94 1529 115 
Q 1234 325 1066 759 
Q 856 1300 856 1956 
Q 856 2450 1053 2875 
Q 1203 3203 1453 3451 
Q 1703 3700 2036 3858 
Q 2369 4016 2756 4016 
Q 3019 4016 3194 3909 
Q 3269 3863 3269 3784 
Q 3269 3728 3234 3692 
Q 3200 3656 3147 3656 
Q 3106 3656 3050 3688 
Q 2922 3750 2731 3750 
Q 2122 3750 1620 3226 
Q 1119 2703 1119 1981 
Q 1119 1878 1138 1659 
z
M 1197 1225 
Q 1316 656 1570 412 
Q 1825 169 2172 169 
Q 2522 169 2770 442 
Q 3019 716 3019 1153 
Q 3019 1563 2769 1831 
Q 2519 2100 2203 2100 
Q 1900 2100 1619 1841 
Q 1431 1669 1197 1225 
z
" transform="scale(0.015625)"/>
       </defs>
       <use xlink:href="#CourierNewPSMT-30"/>
       <use xlink:href="#CourierNewPSMT-2e" x="60.009766"/>
       <use xlink:href="#CourierNewPSMT-36" x="120.019531"/>
      </g>
     </g>
    </g>
    <g id="xtick_5">
     <g id="line2d_9">
      <path d="M 397.46858 343.516875 
L 397.46858 10.876875 
" clip-path="url(#p741ec6253b)" style="fill: none; stroke-dasharray: 1.85,0.8; stroke-dashoffset: 0; stroke: #d3d3d3; stroke-width: 0.5"/>
     </g>
     <g id="line2d_10">
      <g>
       <use xlink:href="#m16638fcef2" x="397.46858" y="343.516875" style="stroke: #000000; stroke-width: 0.8"/>
      </g>
     </g>
     <g id="text_5">
      <!-- 0.8 -->
      <g transform="translate(386.665767 359.370625) scale(0.12 -0.12)">
       <defs>
        <path id="CourierNewPSMT-38" d="M 2459 2034 
Q 2788 1875 2955 1614 
Q 3122 1353 3122 1053 
Q 3122 588 2772 247 
Q 2422 -94 1922 -94 
Q 1422 -94 1072 247 
Q 722 588 722 1053 
Q 722 1350 889 1611 
Q 1056 1872 1388 2034 
Q 1100 2200 969 2378 
Q 788 2631 788 2938 
Q 788 3369 1120 3692 
Q 1453 4016 1922 4016 
Q 2394 4016 2725 3692 
Q 3056 3369 3056 2938 
Q 3056 2631 2875 2381 
Q 2747 2200 2459 2034 
z
M 2788 2928 
Q 2788 3266 2536 3508 
Q 2284 3750 1919 3750 
Q 1556 3750 1304 3506 
Q 1053 3263 1053 2931 
Q 1053 2625 1301 2395 
Q 1550 2166 1919 2166 
Q 2291 2166 2539 2395 
Q 2788 2625 2788 2928 
z
M 2859 1047 
Q 2859 1394 2590 1650 
Q 2322 1906 1922 1906 
Q 1522 1906 1253 1650 
Q 984 1394 984 1050 
Q 984 694 1254 431 
Q 1525 169 1922 169 
Q 2319 169 2589 431 
Q 2859 694 2859 1047 
z
" transform="scale(0.015625)"/>
       </defs>
       <use xlink:href="#CourierNewPSMT-30"/>
       <use xlink:href="#CourierNewPSMT-2e" x="60.009766"/>
       <use xlink:href="#CourierNewPSMT-38" x="120.019531"/>
      </g>
     </g>
    </g>
    <g id="xtick_6">
     <g id="line2d_11">
      <path d="M 478.632216 343.516875 
L 478.632216 10.876875 
" clip-path="url(#p741ec6253b)" style="fill: none; stroke-dasharray: 1.85,0.8; stroke-dashoffset: 0; stroke: #d3d3d3; stroke-width: 0.5"/>
     </g>
     <g id="line2d_12">
      <g>
       <use xlink:href="#m16638fcef2" x="478.632216" y="343.516875" style="stroke: #000000; stroke-width: 0.8"/>
      </g>
     </g>
     <g id="text_6">
      <!-- 1.0 -->
      <g transform="translate(467.829403 359.370625) scale(0.12 -0.12)">
       <defs>
        <path id="CourierNewPSMT-31" d="M 2050 3975 
L 2050 263 
L 2950 263 
Q 3044 263 3084 227 
Q 3125 191 3125 131 
Q 3125 75 3084 37 
Q 3044 0 2950 0 
L 888 0 
Q 794 0 753 37 
Q 713 75 713 131 
Q 713 191 753 227 
Q 794 263 888 263 
L 1788 263 
L 1788 3613 
L 931 3344 
Q 869 3325 841 3325 
Q 794 3325 755 3364 
Q 716 3403 716 3456 
Q 716 3503 747 3544 
Q 772 3569 850 3597 
L 2050 3975 
z
" transform="scale(0.015625)"/>
       </defs>
       <use xlink:href="#CourierNewPSMT-31"/>
       <use xlink:href="#CourierNewPSMT-2e" x="60.009766"/>
       <use xlink:href="#CourierNewPSMT-30" x="120.019531"/>
      </g>
     </g>
    </g>
    <g id="text_7">
     <!-- Proportion of lesioned neurons -->
     <g transform="translate(149.690312 374.497813) scale(0.14 -0.14)">
      <defs>
       <path id="CourierNewPSMT-50" d="M 1350 1500 
L 1350 263 
L 2250 263 
Q 2344 263 2384 227 
Q 2425 191 2425 131 
Q 2425 75 2384 37 
Q 2344 0 2250 0 
L 734 0 
Q 641 0 600 37 
Q 559 75 559 131 
Q 559 191 600 227 
Q 641 263 734 263 
L 1088 263 
L 1088 3394 
L 734 3394 
Q 641 3394 600 3430 
Q 559 3466 559 3525 
Q 559 3584 600 3620 
Q 641 3656 734 3656 
L 2259 3656 
Q 2800 3656 3142 3337 
Q 3484 3019 3484 2591 
Q 3484 2338 3373 2134 
Q 3263 1931 3106 1816 
Q 2872 1641 2622 1559 
Q 2441 1500 2172 1500 
L 1350 1500 
z
M 1350 1763 
L 2188 1763 
Q 2478 1763 2733 1892 
Q 2988 2022 3105 2209 
Q 3222 2397 3222 2591 
Q 3222 2900 2956 3147 
Q 2691 3394 2284 3394 
L 1350 3394 
L 1350 1763 
z
" transform="scale(0.015625)"/>
       <path id="CourierNewPSMT-72" d="M 1606 2706 
L 1606 2044 
Q 2119 2506 2373 2639 
Q 2628 2772 2844 2772 
Q 3078 2772 3279 2614 
Q 3481 2456 3481 2375 
Q 3481 2316 3442 2277 
Q 3403 2238 3344 2238 
Q 3313 2238 3291 2248 
Q 3269 2259 3209 2319 
Q 3100 2428 3019 2468 
Q 2938 2509 2859 2509 
Q 2688 2509 2445 2371 
Q 2203 2234 1606 1700 
L 1606 263 
L 2769 263 
Q 2866 263 2906 227 
Q 2947 191 2947 131 
Q 2947 75 2906 37 
Q 2866 0 2769 0 
L 709 0 
Q 616 0 575 36 
Q 534 72 534 128 
Q 534 181 573 217 
Q 613 253 709 253 
L 1344 253 
L 1344 2441 
L 859 2441 
Q 766 2441 725 2478 
Q 684 2516 684 2575 
Q 684 2631 723 2668 
Q 763 2706 859 2706 
L 1606 2706 
z
" transform="scale(0.015625)"/>
       <path id="CourierNewPSMT-6f" d="M 3388 1347 
Q 3388 747 2958 322 
Q 2528 -103 1922 -103 
Q 1309 -103 881 323 
Q 453 750 453 1347 
Q 453 1947 881 2373 
Q 1309 2800 1922 2800 
Q 2528 2800 2958 2375 
Q 3388 1950 3388 1347 
z
M 3122 1347 
Q 3122 1841 2770 2187 
Q 2419 2534 1919 2534 
Q 1419 2534 1067 2186 
Q 716 1838 716 1347 
Q 716 859 1067 509 
Q 1419 159 1919 159 
Q 2419 159 2770 507 
Q 3122 856 3122 1347 
z
" transform="scale(0.015625)"/>
       <path id="CourierNewPSMT-70" d="M 931 2706 
L 931 2228 
Q 1166 2513 1434 2656 
Q 1703 2800 2069 2800 
Q 2456 2800 2784 2619 
Q 3113 2438 3292 2114 
Q 3472 1791 3472 1434 
Q 3472 869 3067 467 
Q 2663 66 2072 66 
Q 1369 66 931 638 
L 931 -944 
L 1569 -944 
Q 1663 -944 1703 -980 
Q 1744 -1016 1744 -1075 
Q 1744 -1131 1703 -1168 
Q 1663 -1206 1569 -1206 
L 316 -1206 
Q 222 -1206 181 -1170 
Q 141 -1134 141 -1075 
Q 141 -1016 181 -980 
Q 222 -944 316 -944 
L 669 -944 
L 669 2441 
L 316 2441 
Q 222 2441 181 2478 
Q 141 2516 141 2575 
Q 141 2631 181 2668 
Q 222 2706 316 2706 
L 931 2706 
z
M 3206 1434 
Q 3206 1888 2876 2211 
Q 2547 2534 2072 2534 
Q 1594 2534 1262 2209 
Q 931 1884 931 1434 
Q 931 981 1262 656 
Q 1594 331 2072 331 
Q 2544 331 2875 654 
Q 3206 978 3206 1434 
z
" transform="scale(0.015625)"/>
       <path id="CourierNewPSMT-74" d="M 1381 2706 
L 2806 2706 
Q 2900 2706 2940 2668 
Q 2981 2631 2981 2572 
Q 2981 2516 2940 2478 
Q 2900 2441 2806 2441 
L 1381 2441 
L 1381 694 
Q 1381 466 1564 312 
Q 1747 159 2100 159 
Q 2366 159 2675 239 
Q 2984 319 3156 419 
Q 3219 459 3259 459 
Q 3309 459 3346 420 
Q 3384 381 3384 328 
Q 3384 281 3344 241 
Q 3244 138 2858 17 
Q 2472 -103 2119 -103 
Q 1659 -103 1387 112 
Q 1116 328 1116 694 
L 1116 2441 
L 631 2441 
Q 538 2441 497 2478 
Q 456 2516 456 2575 
Q 456 2631 497 2668 
Q 538 2706 631 2706 
L 1116 2706 
L 1116 3481 
Q 1116 3575 1153 3615 
Q 1191 3656 1247 3656 
Q 1306 3656 1343 3615 
Q 1381 3575 1381 3481 
L 1381 2706 
z
" transform="scale(0.015625)"/>
       <path id="CourierNewPSMT-69" d="M 2050 4053 
L 2050 3375 
L 1663 3375 
L 1663 4053 
L 2050 4053 
z
M 2059 2706 
L 2059 263 
L 3091 263 
Q 3188 263 3228 227 
Q 3269 191 3269 131 
Q 3269 75 3228 37 
Q 3188 0 3091 0 
L 766 0 
Q 672 0 631 37 
Q 591 75 591 131 
Q 591 191 631 227 
Q 672 263 766 263 
L 1797 263 
L 1797 2441 
L 1031 2441 
Q 938 2441 895 2478 
Q 853 2516 853 2572 
Q 853 2631 893 2668 
Q 934 2706 1031 2706 
L 2059 2706 
z
" transform="scale(0.015625)"/>
       <path id="CourierNewPSMT-6e" d="M 1072 2706 
L 1072 2309 
Q 1347 2588 1569 2694 
Q 1791 2800 2069 2800 
Q 2369 2800 2616 2672 
Q 2791 2578 2933 2361 
Q 3075 2144 3075 1916 
L 3075 263 
L 3297 263 
Q 3391 263 3431 227 
Q 3472 191 3472 131 
Q 3472 75 3431 37 
Q 3391 0 3297 0 
L 2594 0 
Q 2497 0 2456 37 
Q 2416 75 2416 131 
Q 2416 191 2456 227 
Q 2497 263 2594 263 
L 2813 263 
L 2813 1872 
Q 2813 2150 2609 2342 
Q 2406 2534 2066 2534 
Q 1806 2534 1615 2429 
Q 1425 2325 1072 1909 
L 1072 263 
L 1369 263 
Q 1463 263 1503 227 
Q 1544 191 1544 131 
Q 1544 75 1503 37 
Q 1463 0 1369 0 
L 513 0 
Q 419 0 378 37 
Q 338 75 338 131 
Q 338 191 378 227 
Q 419 263 513 263 
L 809 263 
L 809 2441 
L 588 2441 
Q 494 2441 453 2478 
Q 413 2516 413 2575 
Q 413 2631 453 2668 
Q 494 2706 588 2706 
L 1072 2706 
z
" transform="scale(0.015625)"/>
       <path id="CourierNewPSMT-20" transform="scale(0.015625)"/>
       <path id="CourierNewPSMT-66" d="M 1747 2441 
L 1747 263 
L 2900 263 
Q 2994 263 3034 227 
Q 3075 191 3075 131 
Q 3075 75 3034 37 
Q 2994 0 2900 0 
L 847 0 
Q 753 0 712 37 
Q 672 75 672 131 
Q 672 191 712 227 
Q 753 263 847 263 
L 1481 263 
L 1481 2441 
L 913 2441 
Q 819 2441 778 2478 
Q 738 2516 738 2575 
Q 738 2631 778 2668 
Q 819 2706 913 2706 
L 1481 2706 
L 1481 3103 
Q 1481 3434 1750 3678 
Q 2019 3922 2463 3922 
Q 2834 3922 3256 3853 
Q 3416 3828 3448 3793 
Q 3481 3759 3481 3703 
Q 3481 3647 3443 3611 
Q 3406 3575 3344 3575 
Q 3319 3575 3259 3584 
Q 2788 3656 2463 3656 
Q 2119 3656 1933 3487 
Q 1747 3319 1747 3103 
L 1747 2706 
L 2975 2706 
Q 3069 2706 3109 2668 
Q 3150 2631 3150 2572 
Q 3150 2516 3109 2478 
Q 3069 2441 2975 2441 
L 1747 2441 
z
" transform="scale(0.015625)"/>
       <path id="CourierNewPSMT-6c" d="M 2053 3922 
L 2053 263 
L 3084 263 
Q 3181 263 3222 227 
Q 3263 191 3263 131 
Q 3263 75 3222 37 
Q 3181 0 3084 0 
L 759 0 
Q 666 0 625 37 
Q 584 75 584 131 
Q 584 191 625 227 
Q 666 263 759 263 
L 1791 263 
L 1791 3656 
L 1034 3656 
Q 941 3656 898 3693 
Q 856 3731 856 3791 
Q 856 3847 897 3884 
Q 938 3922 1034 3922 
L 2053 3922 
z
" transform="scale(0.015625)"/>
       <path id="CourierNewPSMT-65" d="M 3341 1291 
L 666 1291 
Q 734 781 1092 470 
Q 1450 159 1978 159 
Q 2272 159 2594 256 
Q 2916 353 3119 513 
Q 3178 559 3222 559 
Q 3272 559 3309 520 
Q 3347 481 3347 428 
Q 3347 375 3297 325 
Q 3147 169 2764 33 
Q 2381 -103 1978 -103 
Q 1303 -103 851 339 
Q 400 781 400 1409 
Q 400 1981 823 2390 
Q 1247 2800 1872 2800 
Q 2516 2800 2931 2379 
Q 3347 1959 3341 1291 
z
M 3075 1556 
Q 2997 1991 2664 2262 
Q 2331 2534 1872 2534 
Q 1413 2534 1081 2265 
Q 750 1997 669 1556 
L 3075 1556 
z
" transform="scale(0.015625)"/>
       <path id="CourierNewPSMT-73" d="M 2788 2534 
Q 2788 2625 2825 2665 
Q 2863 2706 2919 2706 
Q 2978 2706 3015 2665 
Q 3053 2625 3053 2528 
L 3053 2078 
Q 3053 1984 3015 1943 
Q 2978 1903 2919 1903 
Q 2866 1903 2830 1937 
Q 2794 1972 2788 2050 
Q 2769 2238 2594 2359 
Q 2338 2534 1916 2534 
Q 1475 2534 1231 2356 
Q 1047 2222 1047 2056 
Q 1047 1869 1266 1744 
Q 1416 1656 1834 1609 
Q 2381 1550 2594 1475 
Q 2897 1366 3045 1172 
Q 3194 978 3194 753 
Q 3194 419 2872 158 
Q 2550 -103 1928 -103 
Q 1306 -103 909 213 
Q 909 106 896 75 
Q 884 44 851 22 
Q 819 0 778 0 
Q 722 0 684 40 
Q 647 81 647 175 
L 647 716 
Q 647 809 683 850 
Q 719 891 778 891 
Q 834 891 873 852 
Q 913 813 913 747 
Q 913 603 984 506 
Q 1094 356 1333 257 
Q 1572 159 1919 159 
Q 2431 159 2681 350 
Q 2931 541 2931 753 
Q 2931 997 2678 1144 
Q 2422 1291 1933 1341 
Q 1444 1391 1231 1472 
Q 1019 1553 900 1715 
Q 781 1878 781 2066 
Q 781 2403 1112 2601 
Q 1444 2800 1903 2800 
Q 2447 2800 2788 2534 
z
" transform="scale(0.015625)"/>
       <path id="CourierNewPSMT-64" d="M 3206 3922 
L 3206 263 
L 3556 263 
Q 3653 263 3693 227 
Q 3734 191 3734 131 
Q 3734 75 3693 37 
Q 3653 0 3556 0 
L 2941 0 
L 2941 522 
Q 2484 -103 1781 -103 
Q 1425 -103 1098 86 
Q 772 275 583 625 
Q 394 975 394 1347 
Q 394 1722 583 2070 
Q 772 2419 1098 2609 
Q 1425 2800 1784 2800 
Q 2472 2800 2941 2175 
L 2941 3656 
L 2591 3656 
Q 2494 3656 2453 3693 
Q 2413 3731 2413 3791 
Q 2413 3847 2453 3884 
Q 2494 3922 2591 3922 
L 3206 3922 
z
M 2941 1347 
Q 2941 1847 2603 2190 
Q 2266 2534 1800 2534 
Q 1331 2534 993 2190 
Q 656 1847 656 1347 
Q 656 850 993 504 
Q 1331 159 1800 159 
Q 2266 159 2603 504 
Q 2941 850 2941 1347 
z
" transform="scale(0.015625)"/>
       <path id="CourierNewPSMT-75" d="M 2819 0 
L 2819 384 
Q 2281 -103 1656 -103 
Q 1272 -103 1072 106 
Q 813 381 813 747 
L 813 2441 
L 459 2441 
Q 366 2441 325 2478 
Q 284 2516 284 2575 
Q 284 2631 325 2668 
Q 366 2706 459 2706 
L 1075 2706 
L 1075 747 
Q 1075 491 1237 325 
Q 1400 159 1644 159 
Q 2284 159 2819 747 
L 2819 2441 
L 2334 2441 
Q 2241 2441 2200 2478 
Q 2159 2516 2159 2575 
Q 2159 2631 2200 2668 
Q 2241 2706 2334 2706 
L 3081 2706 
L 3081 263 
L 3303 263 
Q 3397 263 3437 227 
Q 3478 191 3478 131 
Q 3478 75 3437 37 
Q 3397 0 3303 0 
L 2819 0 
z
" transform="scale(0.015625)"/>
      </defs>
      <use xlink:href="#CourierNewPSMT-50"/>
      <use xlink:href="#CourierNewPSMT-72" x="60.009766"/>
      <use xlink:href="#CourierNewPSMT-6f" x="120.019531"/>
      <use xlink:href="#CourierNewPSMT-70" x="180.029297"/>
      <use xlink:href="#CourierNewPSMT-6f" x="240.039062"/>
      <use xlink:href="#CourierNewPSMT-72" x="300.048828"/>
      <use xlink:href="#CourierNewPSMT-74" x="360.058594"/>
      <use xlink:href="#CourierNewPSMT-69" x="420.068359"/>
      <use xlink:href="#CourierNewPSMT-6f" x="480.078125"/>
      <use xlink:href="#CourierNewPSMT-6e" x="540.087891"/>
      <use xlink:href="#CourierNewPSMT-20" x="600.097656"/>
      <use xlink:href="#CourierNewPSMT-6f" x="660.107422"/>
      <use xlink:href="#CourierNewPSMT-66" x="720.117188"/>
      <use xlink:href="#CourierNewPSMT-20" x="780.126953"/>
      <use xlink:href="#CourierNewPSMT-6c" x="840.136719"/>
      <use xlink:href="#CourierNewPSMT-65" x="900.146484"/>
      <use xlink:href="#CourierNewPSMT-73" x="960.15625"/>
      <use xlink:href="#CourierNewPSMT-69" x="1020.166016"/>
      <use xlink:href="#CourierNewPSMT-6f" x="1080.175781"/>
      <use xlink:href="#CourierNewPSMT-6e" x="1140.185547"/>
      <use xlink:href="#CourierNewPSMT-65" x="1200.195312"/>
      <use xlink:href="#CourierNewPSMT-64" x="1260.205078"/>
      <use xlink:href="#CourierNewPSMT-20" x="1320.214844"/>
      <use xlink:href="#CourierNewPSMT-6e" x="1380.224609"/>
      <use xlink:href="#CourierNewPSMT-65" x="1440.234375"/>
      <use xlink:href="#CourierNewPSMT-75" x="1500.244141"/>
      <use xlink:href="#CourierNewPSMT-72" x="1560.253906"/>
      <use xlink:href="#CourierNewPSMT-6f" x="1620.263672"/>
      <use xlink:href="#CourierNewPSMT-6e" x="1680.273438"/>
      <use xlink:href="#CourierNewPSMT-73" x="1740.283203"/>
     </g>
    </g>
   </g>
   <g id="matplotlib.axis_2">
    <g id="ytick_1">
     <g id="line2d_13">
      <path d="M 52.523125 343.516875 
L 498.923125 343.516875 
" clip-path="url(#p741ec6253b)" style="fill: none; stroke-dasharray: 1.85,0.8; stroke-dashoffset: 0; stroke: #d3d3d3; stroke-width: 0.5"/>
     </g>
     <g id="line2d_14">
      <defs>
       <path id="m54a8147ad5" d="M 0 0 
L -5 0 
" style="stroke: #000000; stroke-width: 0.8"/>
      </defs>
      <g>
       <use xlink:href="#m54a8147ad5" x="52.523125" y="343.516875" style="stroke: #000000; stroke-width: 0.8"/>
      </g>
     </g>
     <g id="text_8">
      <!-- 0.0 -->
      <g transform="translate(22.4175 347.19375) scale(0.12 -0.12)">
       <use xlink:href="#CourierNewPSMT-30"/>
       <use xlink:href="#CourierNewPSMT-2e" x="60.009766"/>
       <use xlink:href="#CourierNewPSMT-30" x="120.019531"/>
      </g>
     </g>
    </g>
    <g id="ytick_2">
     <g id="line2d_15">
      <path d="M 52.523125 276.988875 
L 498.923125 276.988875 
" clip-path="url(#p741ec6253b)" style="fill: none; stroke-dasharray: 1.85,0.8; stroke-dashoffset: 0; stroke: #d3d3d3; stroke-width: 0.5"/>
     </g>
     <g id="line2d_16">
      <g>
       <use xlink:href="#m54a8147ad5" x="52.523125" y="276.988875" style="stroke: #000000; stroke-width: 0.8"/>
      </g>
     </g>
     <g id="text_9">
      <!-- 0.2 -->
      <g transform="translate(22.4175 280.66575) scale(0.12 -0.12)">
       <use xlink:href="#CourierNewPSMT-30"/>
       <use xlink:href="#CourierNewPSMT-2e" x="60.009766"/>
       <use xlink:href="#CourierNewPSMT-32" x="120.019531"/>
      </g>
     </g>
    </g>
    <g id="ytick_3">
     <g id="line2d_17">
      <path d="M 52.523125 210.460875 
L 498.923125 210.460875 
" clip-path="url(#p741ec6253b)" style="fill: none; stroke-dasharray: 1.85,0.8; stroke-dashoffset: 0; stroke: #d3d3d3; stroke-width: 0.5"/>
     </g>
     <g id="line2d_18">
      <g>
       <use xlink:href="#m54a8147ad5" x="52.523125" y="210.460875" style="stroke: #000000; stroke-width: 0.8"/>
      </g>
     </g>
     <g id="text_10">
      <!-- 0.4 -->
      <g transform="translate(22.4175 214.13775) scale(0.12 -0.12)">
       <use xlink:href="#CourierNewPSMT-30"/>
       <use xlink:href="#CourierNewPSMT-2e" x="60.009766"/>
       <use xlink:href="#CourierNewPSMT-34" x="120.019531"/>
      </g>
     </g>
    </g>
    <g id="ytick_4">
     <g id="line2d_19">
      <path d="M 52.523125 143.932875 
L 498.923125 143.932875 
" clip-path="url(#p741ec6253b)" style="fill: none; stroke-dasharray: 1.85,0.8; stroke-dashoffset: 0; stroke: #d3d3d3; stroke-width: 0.5"/>
     </g>
     <g id="line2d_20">
      <g>
       <use xlink:href="#m54a8147ad5" x="52.523125" y="143.932875" style="stroke: #000000; stroke-width: 0.8"/>
      </g>
     </g>
     <g id="text_11">
      <!-- 0.6 -->
      <g transform="translate(22.4175 147.60975) scale(0.12 -0.12)">
       <use xlink:href="#CourierNewPSMT-30"/>
       <use xlink:href="#CourierNewPSMT-2e" x="60.009766"/>
       <use xlink:href="#CourierNewPSMT-36" x="120.019531"/>
      </g>
     </g>
    </g>
    <g id="ytick_5">
     <g id="line2d_21">
      <path d="M 52.523125 77.404875 
L 498.923125 77.404875 
" clip-path="url(#p741ec6253b)" style="fill: none; stroke-dasharray: 1.85,0.8; stroke-dashoffset: 0; stroke: #d3d3d3; stroke-width: 0.5"/>
     </g>
     <g id="line2d_22">
      <g>
       <use xlink:href="#m54a8147ad5" x="52.523125" y="77.404875" style="stroke: #000000; stroke-width: 0.8"/>
      </g>
     </g>
     <g id="text_12">
      <!-- 0.8 -->
      <g transform="translate(22.4175 81.08175) scale(0.12 -0.12)">
       <use xlink:href="#CourierNewPSMT-30"/>
       <use xlink:href="#CourierNewPSMT-2e" x="60.009766"/>
       <use xlink:href="#CourierNewPSMT-38" x="120.019531"/>
      </g>
     </g>
    </g>
    <g id="ytick_6">
     <g id="line2d_23">
      <path d="M 52.523125 10.876875 
L 498.923125 10.876875 
" clip-path="url(#p741ec6253b)" style="fill: none; stroke-dasharray: 1.85,0.8; stroke-dashoffset: 0; stroke: #d3d3d3; stroke-width: 0.5"/>
     </g>
     <g id="line2d_24">
      <g>
       <use xlink:href="#m54a8147ad5" x="52.523125" y="10.876875" style="stroke: #000000; stroke-width: 0.8"/>
      </g>
     </g>
     <g id="text_13">
      <!-- 1.0 -->
      <g transform="translate(22.4175 14.55375) scale(0.12 -0.12)">
       <use xlink:href="#CourierNewPSMT-31"/>
       <use xlink:href="#CourierNewPSMT-2e" x="60.009766"/>
       <use xlink:href="#CourierNewPSMT-30" x="120.019531"/>
      </g>
     </g>
    </g>
    <g id="text_14">
     <!-- Performance -->
     <g transform="translate(15.779375 223.408906) rotate(-90) scale(0.14 -0.14)">
      <defs>
       <path id="CourierNewPSMT-6d" d="M 725 2706 
L 725 2441 
Q 1059 2800 1397 2800 
Q 1600 2800 1753 2692 
Q 1906 2584 2009 2366 
Q 2184 2584 2364 2692 
Q 2544 2800 2725 2800 
Q 3009 2800 3178 2616 
Q 3400 2378 3400 2097 
L 3400 263 
L 3622 263 
Q 3716 263 3756 227 
Q 3797 191 3797 131 
Q 3797 75 3756 37 
Q 3716 0 3622 0 
L 3138 0 
L 3138 2072 
Q 3138 2272 3016 2403 
Q 2894 2534 2734 2534 
Q 2591 2534 2431 2426 
Q 2272 2319 2069 2003 
L 2069 263 
L 2288 263 
Q 2381 263 2422 227 
Q 2463 191 2463 131 
Q 2463 75 2422 37 
Q 2381 0 2288 0 
L 1803 0 
L 1803 2053 
Q 1803 2263 1679 2398 
Q 1556 2534 1403 2534 
Q 1263 2534 1125 2444 
Q 934 2316 725 2003 
L 725 263 
L 947 263 
Q 1041 263 1081 227 
Q 1122 191 1122 131 
Q 1122 75 1081 37 
Q 1041 0 947 0 
L 241 0 
Q 147 0 106 37 
Q 66 75 66 131 
Q 66 191 106 227 
Q 147 263 241 263 
L 463 263 
L 463 2441 
L 241 2441 
Q 147 2441 106 2478 
Q 66 2516 66 2575 
Q 66 2631 106 2668 
Q 147 2706 241 2706 
L 725 2706 
z
" transform="scale(0.015625)"/>
       <path id="CourierNewPSMT-61" d="M 2675 0 
L 2675 378 
Q 2103 -103 1453 -103 
Q 981 -103 715 136 
Q 450 375 450 722 
Q 450 1103 800 1387 
Q 1150 1672 1822 1672 
Q 2003 1672 2215 1648 
Q 2428 1625 2675 1575 
L 2675 2000 
Q 2675 2216 2475 2375 
Q 2275 2534 1875 2534 
Q 1569 2534 1016 2356 
Q 916 2325 888 2325 
Q 838 2325 802 2362 
Q 766 2400 766 2456 
Q 766 2509 797 2541 
Q 841 2588 1150 2669 
Q 1638 2800 1888 2800 
Q 2384 2800 2662 2554 
Q 2941 2309 2941 2000 
L 2941 263 
L 3291 263 
Q 3388 263 3428 227 
Q 3469 191 3469 131 
Q 3469 75 3428 37 
Q 3388 0 3291 0 
L 2675 0 
z
M 2675 1306 
Q 2491 1359 2284 1384 
Q 2078 1409 1850 1409 
Q 1278 1409 956 1163 
Q 713 978 713 722 
Q 713 484 898 321 
Q 1084 159 1441 159 
Q 1781 159 2073 295 
Q 2366 431 2675 728 
L 2675 1306 
z
" transform="scale(0.015625)"/>
       <path id="CourierNewPSMT-63" d="M 3016 2441 
L 3016 2528 
Q 3016 2625 3053 2665 
Q 3091 2706 3147 2706 
Q 3206 2706 3243 2665 
Q 3281 2625 3281 2528 
L 3281 1934 
Q 3278 1838 3242 1797 
Q 3206 1756 3147 1756 
Q 3094 1756 3058 1792 
Q 3022 1828 3016 1913 
Q 2997 2134 2723 2334 
Q 2450 2534 1988 2534 
Q 1403 2534 1100 2168 
Q 797 1803 797 1331 
Q 797 822 1131 490 
Q 1466 159 1997 159 
Q 2303 159 2620 271 
Q 2938 384 3194 634 
Q 3259 697 3309 697 
Q 3363 697 3398 661 
Q 3434 625 3434 572 
Q 3434 438 3119 231 
Q 2609 -103 1984 -103 
Q 1350 -103 942 301 
Q 534 706 534 1328 
Q 534 1963 951 2381 
Q 1369 2800 2003 2800 
Q 2606 2800 3016 2441 
z
" transform="scale(0.015625)"/>
      </defs>
      <use xlink:href="#CourierNewPSMT-50"/>
      <use xlink:href="#CourierNewPSMT-65" x="60.009766"/>
      <use xlink:href="#CourierNewPSMT-72" x="120.019531"/>
      <use xlink:href="#CourierNewPSMT-66" x="180.029297"/>
      <use xlink:href="#CourierNewPSMT-6f" x="240.039062"/>
      <use xlink:href="#CourierNewPSMT-72" x="300.048828"/>
      <use xlink:href="#CourierNewPSMT-6d" x="360.058594"/>
      <use xlink:href="#CourierNewPSMT-61" x="420.068359"/>
      <use xlink:href="#CourierNewPSMT-6e" x="480.078125"/>
      <use xlink:href="#CourierNewPSMT-63" x="540.087891"/>
      <use xlink:href="#CourierNewPSMT-65" x="600.097656"/>
     </g>
    </g>
   </g>
   <g id="LineCollection_1">
    <path d="M 72.814034 89.270808 
L 72.814034 78.337786 
" clip-path="url(#p741ec6253b)" style="fill: none; stroke: #808080; stroke-width: 2"/>
    <path d="M 82.959489 92.042131 
L 82.959489 81.088806 
" clip-path="url(#p741ec6253b)" style="fill: none; stroke: #808080; stroke-width: 2"/>
    <path d="M 93.104943 95.590034 
L 93.104943 84.687466 
" clip-path="url(#p741ec6253b)" style="fill: none; stroke: #808080; stroke-width: 2"/>
    <path d="M 103.250398 99.34604 
L 103.250398 88.402866 
" clip-path="url(#p741ec6253b)" style="fill: none; stroke: #808080; stroke-width: 2"/>
    <path d="M 113.395852 102.102136 
L 113.395852 91.169114 
" clip-path="url(#p741ec6253b)" style="fill: none; stroke: #808080; stroke-width: 2"/>
    <path d="M 123.541307 105.837839 
L 123.541307 94.904817 
" clip-path="url(#p741ec6253b)" style="fill: none; stroke: #808080; stroke-width: 2"/>
    <path d="M 133.686761 109.568467 
L 133.686761 98.645596 
" clip-path="url(#p741ec6253b)" style="fill: none; stroke: #808080; stroke-width: 2"/>
    <path d="M 143.832216 114.502031 
L 143.832216 103.457344 
" clip-path="url(#p741ec6253b)" style="fill: none; stroke: #808080; stroke-width: 2"/>
    <path d="M 153.97767 118.258037 
L 153.97767 107.172744 
" clip-path="url(#p741ec6253b)" style="fill: none; stroke: #808080; stroke-width: 2"/>
    <path d="M 164.123125 123.003801 
L 164.123125 111.847449 
" clip-path="url(#p741ec6253b)" style="fill: none; stroke: #808080; stroke-width: 2"/>
    <path d="M 174.26858 127.22677 
L 174.26858 116.070417 
" clip-path="url(#p741ec6253b)" style="fill: none; stroke: #808080; stroke-width: 2"/>
    <path d="M 184.414034 132.601919 
L 184.414034 121.415112 
" clip-path="url(#p741ec6253b)" style="fill: none; stroke: #808080; stroke-width: 2"/>
    <path d="M 194.559489 137.779116 
L 194.559489 126.632915 
" clip-path="url(#p741ec6253b)" style="fill: none; stroke: #808080; stroke-width: 2"/>
    <path d="M 204.704943 143.30146 
L 204.704943 132.155259 
" clip-path="url(#p741ec6253b)" style="fill: none; stroke: #808080; stroke-width: 2"/>
    <path d="M 214.850398 149.432886 
L 214.850398 138.367896 
" clip-path="url(#p741ec6253b)" style="fill: none; stroke: #808080; stroke-width: 2"/>
    <path d="M 224.995852 155.549084 
L 224.995852 144.595759 
" clip-path="url(#p741ec6253b)" style="fill: none; stroke: #808080; stroke-width: 2"/>
    <path d="M 235.141307 162.203306 
L 235.141307 151.260132 
" clip-path="url(#p741ec6253b)" style="fill: none; stroke: #808080; stroke-width: 2"/>
    <path d="M 245.286761 169.481836 
L 245.286761 158.59957 
" clip-path="url(#p741ec6253b)" style="fill: none; stroke: #808080; stroke-width: 2"/>
    <path d="M 255.432216 174.349417 
L 255.432216 163.477302 
" clip-path="url(#p741ec6253b)" style="fill: none; stroke: #808080; stroke-width: 2"/>
    <path d="M 265.57767 184.450027 
L 265.57767 173.679426 
" clip-path="url(#p741ec6253b)" style="fill: none; stroke: #808080; stroke-width: 2"/>
    <path d="M 275.723125 193.307095 
L 275.723125 182.526343 
" clip-path="url(#p741ec6253b)" style="fill: none; stroke: #808080; stroke-width: 2"/>
    <path d="M 285.86858 200.605928 
L 285.86858 190.0079 
" clip-path="url(#p741ec6253b)" style="fill: none; stroke: #808080; stroke-width: 2"/>
    <path d="M 296.014034 208.049418 
L 296.014034 197.669645 
" clip-path="url(#p741ec6253b)" style="fill: none; stroke: #808080; stroke-width: 2"/>
    <path d="M 306.159489 218.718505 
L 306.159489 208.440245 
" clip-path="url(#p741ec6253b)" style="fill: none; stroke: #808080; stroke-width: 2"/>
    <path d="M 316.304943 227.055315 
L 316.304943 217.157732 
" clip-path="url(#p741ec6253b)" style="fill: none; stroke: #808080; stroke-width: 2"/>
    <path d="M 326.450398 235.919996 
L 326.450398 226.321879 
" clip-path="url(#p741ec6253b)" style="fill: none; stroke: #808080; stroke-width: 2"/>
    <path d="M 336.595852 244.916646 
L 336.595852 235.516479 
" clip-path="url(#p741ec6253b)" style="fill: none; stroke: #808080; stroke-width: 2"/>
    <path d="M 346.741307 253.347356 
L 346.741307 244.302488 
" clip-path="url(#p741ec6253b)" style="fill: none; stroke: #808080; stroke-width: 2"/>
    <path d="M 356.886761 261.846588 
L 356.886761 253.50724 
" clip-path="url(#p741ec6253b)" style="fill: none; stroke: #808080; stroke-width: 2"/>
    <path d="M 367.032216 271.28736 
L 367.032216 263.719515 
" clip-path="url(#p741ec6253b)" style="fill: none; stroke: #808080; stroke-width: 2"/>
    <path d="M 377.17767 277.484769 
L 377.17767 270.109801 
" clip-path="url(#p741ec6253b)" style="fill: none; stroke: #808080; stroke-width: 2"/>
    <path d="M 387.323125 286.801187 
L 387.323125 280.121587 
" clip-path="url(#p741ec6253b)" style="fill: none; stroke: #808080; stroke-width: 2"/>
    <path d="M 397.46858 294.366493 
L 397.46858 288.148781 
" clip-path="url(#p741ec6253b)" style="fill: none; stroke: #808080; stroke-width: 2"/>
    <path d="M 407.614034 301.086698 
L 407.614034 295.7217 
" clip-path="url(#p741ec6253b)" style="fill: none; stroke: #808080; stroke-width: 2"/>
    <path d="M 417.759489 308.778896 
L 417.759489 304.71835 
" clip-path="url(#p741ec6253b)" style="fill: none; stroke: #808080; stroke-width: 2"/>
    <path d="M 427.904943 314.480158 
L 427.904943 311.158123 
" clip-path="url(#p741ec6253b)" style="fill: none; stroke: #808080; stroke-width: 2"/>
    <path d="M 438.050398 318.600979 
L 438.050398 316.092322 
" clip-path="url(#p741ec6253b)" style="fill: none; stroke: #808080; stroke-width: 2"/>
    <path d="M 448.195852 321.903345 
L 448.195852 319.855307 
" clip-path="url(#p741ec6253b)" style="fill: none; stroke: #808080; stroke-width: 2"/>
    <path d="M 458.341307 324.806636 
L 458.341307 323.286469 
" clip-path="url(#p741ec6253b)" style="fill: none; stroke: #808080; stroke-width: 2"/>
    <path d="M 468.486761 326.761092 
L 468.486761 325.473772 
" clip-path="url(#p741ec6253b)" style="fill: none; stroke: #808080; stroke-width: 2"/>
    <path d="M 478.632216 328.720623 
L 478.632216 327.737209 
" clip-path="url(#p741ec6253b)" style="fill: none; stroke: #808080; stroke-width: 2"/>
   </g>
   <g id="line2d_25">
    <defs>
     <path id="mcb5057bbac" d="M 3 0 
L -3 -0 
" style="stroke: #808080"/>
    </defs>
    <g clip-path="url(#p741ec6253b)">
     <use xlink:href="#mcb5057bbac" x="72.814034" y="89.270808" style="fill: #808080; stroke: #808080"/>
     <use xlink:href="#mcb5057bbac" x="82.959489" y="92.042131" style="fill: #808080; stroke: #808080"/>
     <use xlink:href="#mcb5057bbac" x="93.104943" y="95.590034" style="fill: #808080; stroke: #808080"/>
     <use xlink:href="#mcb5057bbac" x="103.250398" y="99.34604" style="fill: #808080; stroke: #808080"/>
     <use xlink:href="#mcb5057bbac" x="113.395852" y="102.102136" style="fill: #808080; stroke: #808080"/>
     <use xlink:href="#mcb5057bbac" x="123.541307" y="105.837839" style="fill: #808080; stroke: #808080"/>
     <use xlink:href="#mcb5057bbac" x="133.686761" y="109.568467" style="fill: #808080; stroke: #808080"/>
     <use xlink:href="#mcb5057bbac" x="143.832216" y="114.502031" style="fill: #808080; stroke: #808080"/>
     <use xlink:href="#mcb5057bbac" x="153.97767" y="118.258037" style="fill: #808080; stroke: #808080"/>
     <use xlink:href="#mcb5057bbac" x="164.123125" y="123.003801" style="fill: #808080; stroke: #808080"/>
     <use xlink:href="#mcb5057bbac" x="174.26858" y="127.22677" style="fill: #808080; stroke: #808080"/>
     <use xlink:href="#mcb5057bbac" x="184.414034" y="132.601919" style="fill: #808080; stroke: #808080"/>
     <use xlink:href="#mcb5057bbac" x="194.559489" y="137.779116" style="fill: #808080; stroke: #808080"/>
     <use xlink:href="#mcb5057bbac" x="204.704943" y="143.30146" style="fill: #808080; stroke: #808080"/>
     <use xlink:href="#mcb5057bbac" x="214.850398" y="149.432886" style="fill: #808080; stroke: #808080"/>
     <use xlink:href="#mcb5057bbac" x="224.995852" y="155.549084" style="fill: #808080; stroke: #808080"/>
     <use xlink:href="#mcb5057bbac" x="235.141307" y="162.203306" style="fill: #808080; stroke: #808080"/>
     <use xlink:href="#mcb5057bbac" x="245.286761" y="169.481836" style="fill: #808080; stroke: #808080"/>
     <use xlink:href="#mcb5057bbac" x="255.432216" y="174.349417" style="fill: #808080; stroke: #808080"/>
     <use xlink:href="#mcb5057bbac" x="265.57767" y="184.450027" style="fill: #808080; stroke: #808080"/>
     <use xlink:href="#mcb5057bbac" x="275.723125" y="193.307095" style="fill: #808080; stroke: #808080"/>
     <use xlink:href="#mcb5057bbac" x="285.86858" y="200.605928" style="fill: #808080; stroke: #808080"/>
     <use xlink:href="#mcb5057bbac" x="296.014034" y="208.049418" style="fill: #808080; stroke: #808080"/>
     <use xlink:href="#mcb5057bbac" x="306.159489" y="218.718505" style="fill: #808080; stroke: #808080"/>
     <use xlink:href="#mcb5057bbac" x="316.304943" y="227.055315" style="fill: #808080; stroke: #808080"/>
     <use xlink:href="#mcb5057bbac" x="326.450398" y="235.919996" style="fill: #808080; stroke: #808080"/>
     <use xlink:href="#mcb5057bbac" x="336.595852" y="244.916646" style="fill: #808080; stroke: #808080"/>
     <use xlink:href="#mcb5057bbac" x="346.741307" y="253.347356" style="fill: #808080; stroke: #808080"/>
     <use xlink:href="#mcb5057bbac" x="356.886761" y="261.846588" style="fill: #808080; stroke: #808080"/>
     <use xlink:href="#mcb5057bbac" x="367.032216" y="271.28736" style="fill: #808080; stroke: #808080"/>
     <use xlink:href="#mcb5057bbac" x="377.17767" y="277.484769" style="fill: #808080; stroke: #808080"/>
     <use xlink:href="#mcb5057bbac" x="387.323125" y="286.801187" style="fill: #808080; stroke: #808080"/>
     <use xlink:href="#mcb5057bbac" x="397.46858" y="294.366493" style="fill: #808080; stroke: #808080"/>
     <use xlink:href="#mcb5057bbac" x="407.614034" y="301.086698" style="fill: #808080; stroke: #808080"/>
     <use xlink:href="#mcb5057bbac" x="417.759489" y="308.778896" style="fill: #808080; stroke: #808080"/>
     <use xlink:href="#mcb5057bbac" x="427.904943" y="314.480158" style="fill: #808080; stroke: #808080"/>
     <use xlink:href="#mcb5057bbac" x="438.050398" y="318.600979" style="fill: #808080; stroke: #808080"/>
     <use xlink:href="#mcb5057bbac" x="448.195852" y="321.903345" style="fill: #808080; stroke: #808080"/>
     <use xlink:href="#mcb5057bbac" x="458.341307" y="324.806636" style="fill: #808080; stroke: #808080"/>
     <use xlink:href="#mcb5057bbac" x="468.486761" y="326.761092" style="fill: #808080; stroke: #808080"/>
     <use xlink:href="#mcb5057bbac" x="478.632216" y="328.720623" style="fill: #808080; stroke: #808080"/>
    </g>
   </g>
   <g id="line2d_26">
    <g clip-path="url(#p741ec6253b)">
     <use xlink:href="#mcb5057bbac" x="72.814034" y="78.337786" style="fill: #808080; stroke: #808080"/>
     <use xlink:href="#mcb5057bbac" x="82.959489" y="81.088806" style="fill: #808080; stroke: #808080"/>
     <use xlink:href="#mcb5057bbac" x="93.104943" y="84.687466" style="fill: #808080; stroke: #808080"/>
     <use xlink:href="#mcb5057bbac" x="103.250398" y="88.402866" style="fill: #808080; stroke: #808080"/>
     <use xlink:href="#mcb5057bbac" x="113.395852" y="91.169114" style="fill: #808080; stroke: #808080"/>
     <use xlink:href="#mcb5057bbac" x="123.541307" y="94.904817" style="fill: #808080; stroke: #808080"/>
     <use xlink:href="#mcb5057bbac" x="133.686761" y="98.645596" style="fill: #808080; stroke: #808080"/>
     <use xlink:href="#mcb5057bbac" x="143.832216" y="103.457344" style="fill: #808080; stroke: #808080"/>
     <use xlink:href="#mcb5057bbac" x="153.97767" y="107.172744" style="fill: #808080; stroke: #808080"/>
     <use xlink:href="#mcb5057bbac" x="164.123125" y="111.847449" style="fill: #808080; stroke: #808080"/>
     <use xlink:href="#mcb5057bbac" x="174.26858" y="116.070417" style="fill: #808080; stroke: #808080"/>
     <use xlink:href="#mcb5057bbac" x="184.414034" y="121.415112" style="fill: #808080; stroke: #808080"/>
     <use xlink:href="#mcb5057bbac" x="194.559489" y="126.632915" style="fill: #808080; stroke: #808080"/>
     <use xlink:href="#mcb5057bbac" x="204.704943" y="132.155259" style="fill: #808080; stroke: #808080"/>
     <use xlink:href="#mcb5057bbac" x="214.850398" y="138.367896" style="fill: #808080; stroke: #808080"/>
     <use xlink:href="#mcb5057bbac" x="224.995852" y="144.595759" style="fill: #808080; stroke: #808080"/>
     <use xlink:href="#mcb5057bbac" x="235.141307" y="151.260132" style="fill: #808080; stroke: #808080"/>
     <use xlink:href="#mcb5057bbac" x="245.286761" y="158.59957" style="fill: #808080; stroke: #808080"/>
     <use xlink:href="#mcb5057bbac" x="255.432216" y="163.477302" style="fill: #808080; stroke: #808080"/>
     <use xlink:href="#mcb5057bbac" x="265.57767" y="173.679426" style="fill: #808080; stroke: #808080"/>
     <use xlink:href="#mcb5057bbac" x="275.723125" y="182.526343" style="fill: #808080; stroke: #808080"/>
     <use xlink:href="#mcb5057bbac" x="285.86858" y="190.0079" style="fill: #808080; stroke: #808080"/>
     <use xlink:href="#mcb5057bbac" x="296.014034" y="197.669645" style="fill: #808080; stroke: #808080"/>
     <use xlink:href="#mcb5057bbac" x="306.159489" y="208.440245" style="fill: #808080; stroke: #808080"/>
     <use xlink:href="#mcb5057bbac" x="316.304943" y="217.157732" style="fill: #808080; stroke: #808080"/>
     <use xlink:href="#mcb5057bbac" x="326.450398" y="226.321879" style="fill: #808080; stroke: #808080"/>
     <use xlink:href="#mcb5057bbac" x="336.595852" y="235.516479" style="fill: #808080; stroke: #808080"/>
     <use xlink:href="#mcb5057bbac" x="346.741307" y="244.302488" style="fill: #808080; stroke: #808080"/>
     <use xlink:href="#mcb5057bbac" x="356.886761" y="253.50724" style="fill: #808080; stroke: #808080"/>
     <use xlink:href="#mcb5057bbac" x="367.032216" y="263.719515" style="fill: #808080; stroke: #808080"/>
     <use xlink:href="#mcb5057bbac" x="377.17767" y="270.109801" style="fill: #808080; stroke: #808080"/>
     <use xlink:href="#mcb5057bbac" x="387.323125" y="280.121587" style="fill: #808080; stroke: #808080"/>
     <use xlink:href="#mcb5057bbac" x="397.46858" y="288.148781" style="fill: #808080; stroke: #808080"/>
     <use xlink:href="#mcb5057bbac" x="407.614034" y="295.7217" style="fill: #808080; stroke: #808080"/>
     <use xlink:href="#mcb5057bbac" x="417.759489" y="304.71835" style="fill: #808080; stroke: #808080"/>
     <use xlink:href="#mcb5057bbac" x="427.904943" y="311.158123" style="fill: #808080; stroke: #808080"/>
     <use xlink:href="#mcb5057bbac" x="438.050398" y="316.092322" style="fill: #808080; stroke: #808080"/>
     <use xlink:href="#mcb5057bbac" x="448.195852" y="319.855307" style="fill: #808080; stroke: #808080"/>
     <use xlink:href="#mcb5057bbac" x="458.341307" y="323.286469" style="fill: #808080; stroke: #808080"/>
     <use xlink:href="#mcb5057bbac" x="468.486761" y="325.473772" style="fill: #808080; stroke: #808080"/>
     <use xlink:href="#mcb5057bbac" x="478.632216" y="327.737209" style="fill: #808080; stroke: #808080"/>
    </g>
   </g>
   <g id="LineCollection_2">
    <path d="M 72.814034 89.270808 
L 72.814034 78.337786 
" clip-path="url(#p741ec6253b)" style="fill: none; stroke: #f26d4b; stroke-width: 2"/>
    <path d="M 82.959489 95.59511 
L 82.959489 84.357546 
" clip-path="url(#p741ec6253b)" style="fill: none; stroke: #f26d4b; stroke-width: 2"/>
    <path d="M 93.104943 113.613787 
L 93.104943 102.396526 
" clip-path="url(#p741ec6253b)" style="fill: none; stroke: #f26d4b; stroke-width: 2"/>
    <path d="M 103.250398 125.957849 
L 103.250398 114.740588 
" clip-path="url(#p741ec6253b)" style="fill: none; stroke: #f26d4b; stroke-width: 2"/>
    <path d="M 113.395852 135.495059 
L 113.395852 124.36916 
" clip-path="url(#p741ec6253b)" style="fill: none; stroke: #f26d4b; stroke-width: 2"/>
    <path d="M 123.541307 139.692649 
L 123.541307 128.617507 
" clip-path="url(#p741ec6253b)" style="fill: none; stroke: #f26d4b; stroke-width: 2"/>
    <path d="M 133.686761 141.398079 
L 133.686761 130.485359 
" clip-path="url(#p741ec6253b)" style="fill: none; stroke: #f26d4b; stroke-width: 2"/>
    <path d="M 143.832216 141.022478 
L 143.832216 130.211272 
" clip-path="url(#p741ec6253b)" style="fill: none; stroke: #f26d4b; stroke-width: 2"/>
    <path d="M 153.97767 140.96157 
L 153.97767 130.27218 
" clip-path="url(#p741ec6253b)" style="fill: none; stroke: #f26d4b; stroke-width: 2"/>
    <path d="M 164.123125 141.565576 
L 164.123125 130.967549 
" clip-path="url(#p741ec6253b)" style="fill: none; stroke: #f26d4b; stroke-width: 2"/>
    <path d="M 174.26858 142.936011 
L 174.26858 132.520708 
" clip-path="url(#p741ec6253b)" style="fill: none; stroke: #f26d4b; stroke-width: 2"/>
    <path d="M 184.414034 145.440861 
L 184.414034 135.213358 
" clip-path="url(#p741ec6253b)" style="fill: none; stroke: #f26d4b; stroke-width: 2"/>
    <path d="M 194.559489 148.897401 
L 194.559489 138.90338 
" clip-path="url(#p741ec6253b)" style="fill: none; stroke: #f26d4b; stroke-width: 2"/>
    <path d="M 204.704943 153.183816 
L 204.704943 143.387747 
" clip-path="url(#p741ec6253b)" style="fill: none; stroke: #f26d4b; stroke-width: 2"/>
    <path d="M 214.850398 157.203757 
L 214.850398 147.488899 
" clip-path="url(#p741ec6253b)" style="fill: none; stroke: #f26d4b; stroke-width: 2"/>
    <path d="M 224.995852 160.708517 
L 224.995852 151.130702 
" clip-path="url(#p741ec6253b)" style="fill: none; stroke: #f26d4b; stroke-width: 2"/>
    <path d="M 235.141307 163.236207 
L 235.141307 153.800511 
" clip-path="url(#p741ec6253b)" style="fill: none; stroke: #f26d4b; stroke-width: 2"/>
    <path d="M 245.286761 165.294397 
L 245.286761 155.965291 
" clip-path="url(#p741ec6253b)" style="fill: none; stroke: #f26d4b; stroke-width: 2"/>
    <path d="M 255.432216 168.398177 
L 255.432216 159.358385 
" clip-path="url(#p741ec6253b)" style="fill: none; stroke: #f26d4b; stroke-width: 2"/>
    <path d="M 265.57767 171.14666 
L 265.57767 162.132246 
" clip-path="url(#p741ec6253b)" style="fill: none; stroke: #f26d4b; stroke-width: 2"/>
    <path d="M 275.723125 173.872302 
L 275.723125 164.928948 
" clip-path="url(#p741ec6253b)" style="fill: none; stroke: #f26d4b; stroke-width: 2"/>
    <path d="M 285.86858 176.770518 
L 285.86858 167.87792 
" clip-path="url(#p741ec6253b)" style="fill: none; stroke: #f26d4b; stroke-width: 2"/>
    <path d="M 296.014034 180.247361 
L 296.014034 171.547639 
" clip-path="url(#p741ec6253b)" style="fill: none; stroke: #f26d4b; stroke-width: 2"/>
    <path d="M 306.159489 183.75212 
L 306.159489 175.02702 
" clip-path="url(#p741ec6253b)" style="fill: none; stroke: #f26d4b; stroke-width: 2"/>
    <path d="M 316.304943 189.365826 
L 316.304943 180.945267 
" clip-path="url(#p741ec6253b)" style="fill: none; stroke: #f26d4b; stroke-width: 2"/>
    <path d="M 326.450398 197.172228 
L 326.450398 189.05621 
" clip-path="url(#p741ec6253b)" style="fill: none; stroke: #f26d4b; stroke-width: 2"/>
    <path d="M 336.595852 203.722397 
L 336.595852 195.824634 
" clip-path="url(#p741ec6253b)" style="fill: none; stroke: #f26d4b; stroke-width: 2"/>
    <path d="M 346.741307 212.348522 
L 346.741307 204.740072 
" clip-path="url(#p741ec6253b)" style="fill: none; stroke: #f26d4b; stroke-width: 2"/>
    <path d="M 356.886761 222.09891 
L 356.886761 214.805153 
" clip-path="url(#p741ec6253b)" style="fill: none; stroke: #f26d4b; stroke-width: 2"/>
    <path d="M 367.032216 229.258162 
L 367.032216 222.26387 
" clip-path="url(#p741ec6253b)" style="fill: none; stroke: #f26d4b; stroke-width: 2"/>
    <path d="M 377.17767 239.985619 
L 377.17767 233.463365 
" clip-path="url(#p741ec6253b)" style="fill: none; stroke: #f26d4b; stroke-width: 2"/>
    <path d="M 387.323125 250.492284 
L 387.323125 244.55881 
" clip-path="url(#p741ec6253b)" style="fill: none; stroke: #f26d4b; stroke-width: 2"/>
    <path d="M 397.46858 259.412798 
L 397.46858 253.991968 
" clip-path="url(#p741ec6253b)" style="fill: none; stroke: #f26d4b; stroke-width: 2"/>
    <path d="M 407.614034 268.914478 
L 407.614034 263.980913 
" clip-path="url(#p741ec6253b)" style="fill: none; stroke: #f26d4b; stroke-width: 2"/>
    <path d="M 417.759489 276.101646 
L 417.759489 271.492925 
" clip-path="url(#p741ec6253b)" style="fill: none; stroke: #f26d4b; stroke-width: 2"/>
    <path d="M 427.904943 284.485406 
L 427.904943 280.488305 
" clip-path="url(#p741ec6253b)" style="fill: none; stroke: #f26d4b; stroke-width: 2"/>
    <path d="M 438.050398 291.780432 
L 438.050398 288.542146 
" clip-path="url(#p741ec6253b)" style="fill: none; stroke: #f26d4b; stroke-width: 2"/>
    <path d="M 448.195852 294.936238 
L 448.195852 291.964426 
" clip-path="url(#p741ec6253b)" style="fill: none; stroke: #f26d4b; stroke-width: 2"/>
    <path d="M 458.341307 294.950197 
L 458.341307 292.031678 
" clip-path="url(#p741ec6253b)" style="fill: none; stroke: #f26d4b; stroke-width: 2"/>
    <path d="M 468.486761 301.655175 
L 468.486761 299.213771 
" clip-path="url(#p741ec6253b)" style="fill: none; stroke: #f26d4b; stroke-width: 2"/>
    <path d="M 478.632216 328.720623 
L 478.632216 327.737209 
" clip-path="url(#p741ec6253b)" style="fill: none; stroke: #f26d4b; stroke-width: 2"/>
   </g>
   <g id="line2d_27">
    <defs>
     <path id="m28b6effc1e" d="M 3 0 
L -3 -0 
" style="stroke: #f26d4b"/>
    </defs>
    <g clip-path="url(#p741ec6253b)">
     <use xlink:href="#m28b6effc1e" x="72.814034" y="89.270808" style="fill: #f26d4b; stroke: #f26d4b"/>
     <use xlink:href="#m28b6effc1e" x="82.959489" y="95.59511" style="fill: #f26d4b; stroke: #f26d4b"/>
     <use xlink:href="#m28b6effc1e" x="93.104943" y="113.613787" style="fill: #f26d4b; stroke: #f26d4b"/>
     <use xlink:href="#m28b6effc1e" x="103.250398" y="125.957849" style="fill: #f26d4b; stroke: #f26d4b"/>
     <use xlink:href="#m28b6effc1e" x="113.395852" y="135.495059" style="fill: #f26d4b; stroke: #f26d4b"/>
     <use xlink:href="#m28b6effc1e" x="123.541307" y="139.692649" style="fill: #f26d4b; stroke: #f26d4b"/>
     <use xlink:href="#m28b6effc1e" x="133.686761" y="141.398079" style="fill: #f26d4b; stroke: #f26d4b"/>
     <use xlink:href="#m28b6effc1e" x="143.832216" y="141.022478" style="fill: #f26d4b; stroke: #f26d4b"/>
     <use xlink:href="#m28b6effc1e" x="153.97767" y="140.96157" style="fill: #f26d4b; stroke: #f26d4b"/>
     <use xlink:href="#m28b6effc1e" x="164.123125" y="141.565576" style="fill: #f26d4b; stroke: #f26d4b"/>
     <use xlink:href="#m28b6effc1e" x="174.26858" y="142.936011" style="fill: #f26d4b; stroke: #f26d4b"/>
     <use xlink:href="#m28b6effc1e" x="184.414034" y="145.440861" style="fill: #f26d4b; stroke: #f26d4b"/>
     <use xlink:href="#m28b6effc1e" x="194.559489" y="148.897401" style="fill: #f26d4b; stroke: #f26d4b"/>
     <use xlink:href="#m28b6effc1e" x="204.704943" y="153.183816" style="fill: #f26d4b; stroke: #f26d4b"/>
     <use xlink:href="#m28b6effc1e" x="214.850398" y="157.203757" style="fill: #f26d4b; stroke: #f26d4b"/>
     <use xlink:href="#m28b6effc1e" x="224.995852" y="160.708517" style="fill: #f26d4b; stroke: #f26d4b"/>
     <use xlink:href="#m28b6effc1e" x="235.141307" y="163.236207" style="fill: #f26d4b; stroke: #f26d4b"/>
     <use xlink:href="#m28b6effc1e" x="245.286761" y="165.294397" style="fill: #f26d4b; stroke: #f26d4b"/>
     <use xlink:href="#m28b6effc1e" x="255.432216" y="168.398177" style="fill: #f26d4b; stroke: #f26d4b"/>
     <use xlink:href="#m28b6effc1e" x="265.57767" y="171.14666" style="fill: #f26d4b; stroke: #f26d4b"/>
     <use xlink:href="#m28b6effc1e" x="275.723125" y="173.872302" style="fill: #f26d4b; stroke: #f26d4b"/>
     <use xlink:href="#m28b6effc1e" x="285.86858" y="176.770518" style="fill: #f26d4b; stroke: #f26d4b"/>
     <use xlink:href="#m28b6effc1e" x="296.014034" y="180.247361" style="fill: #f26d4b; stroke: #f26d4b"/>
     <use xlink:href="#m28b6effc1e" x="306.159489" y="183.75212" style="fill: #f26d4b; stroke: #f26d4b"/>
     <use xlink:href="#m28b6effc1e" x="316.304943" y="189.365826" style="fill: #f26d4b; stroke: #f26d4b"/>
     <use xlink:href="#m28b6effc1e" x="326.450398" y="197.172228" style="fill: #f26d4b; stroke: #f26d4b"/>
     <use xlink:href="#m28b6effc1e" x="336.595852" y="203.722397" style="fill: #f26d4b; stroke: #f26d4b"/>
     <use xlink:href="#m28b6effc1e" x="346.741307" y="212.348522" style="fill: #f26d4b; stroke: #f26d4b"/>
     <use xlink:href="#m28b6effc1e" x="356.886761" y="222.09891" style="fill: #f26d4b; stroke: #f26d4b"/>
     <use xlink:href="#m28b6effc1e" x="367.032216" y="229.258162" style="fill: #f26d4b; stroke: #f26d4b"/>
     <use xlink:href="#m28b6effc1e" x="377.17767" y="239.985619" style="fill: #f26d4b; stroke: #f26d4b"/>
     <use xlink:href="#m28b6effc1e" x="387.323125" y="250.492284" style="fill: #f26d4b; stroke: #f26d4b"/>
     <use xlink:href="#m28b6effc1e" x="397.46858" y="259.412798" style="fill: #f26d4b; stroke: #f26d4b"/>
     <use xlink:href="#m28b6effc1e" x="407.614034" y="268.914478" style="fill: #f26d4b; stroke: #f26d4b"/>
     <use xlink:href="#m28b6effc1e" x="417.759489" y="276.101646" style="fill: #f26d4b; stroke: #f26d4b"/>
     <use xlink:href="#m28b6effc1e" x="427.904943" y="284.485406" style="fill: #f26d4b; stroke: #f26d4b"/>
     <use xlink:href="#m28b6effc1e" x="438.050398" y="291.780432" style="fill: #f26d4b; stroke: #f26d4b"/>
     <use xlink:href="#m28b6effc1e" x="448.195852" y="294.936238" style="fill: #f26d4b; stroke: #f26d4b"/>
     <use xlink:href="#m28b6effc1e" x="458.341307" y="294.950197" style="fill: #f26d4b; stroke: #f26d4b"/>
     <use xlink:href="#m28b6effc1e" x="468.486761" y="301.655175" style="fill: #f26d4b; stroke: #f26d4b"/>
     <use xlink:href="#m28b6effc1e" x="478.632216" y="328.720623" style="fill: #f26d4b; stroke: #f26d4b"/>
    </g>
   </g>
   <g id="line2d_28">
    <g clip-path="url(#p741ec6253b)">
     <use xlink:href="#m28b6effc1e" x="72.814034" y="78.337786" style="fill: #f26d4b; stroke: #f26d4b"/>
     <use xlink:href="#m28b6effc1e" x="82.959489" y="84.357546" style="fill: #f26d4b; stroke: #f26d4b"/>
     <use xlink:href="#m28b6effc1e" x="93.104943" y="102.396526" style="fill: #f26d4b; stroke: #f26d4b"/>
     <use xlink:href="#m28b6effc1e" x="103.250398" y="114.740588" style="fill: #f26d4b; stroke: #f26d4b"/>
     <use xlink:href="#m28b6effc1e" x="113.395852" y="124.36916" style="fill: #f26d4b; stroke: #f26d4b"/>
     <use xlink:href="#m28b6effc1e" x="123.541307" y="128.617507" style="fill: #f26d4b; stroke: #f26d4b"/>
     <use xlink:href="#m28b6effc1e" x="133.686761" y="130.485359" style="fill: #f26d4b; stroke: #f26d4b"/>
     <use xlink:href="#m28b6effc1e" x="143.832216" y="130.211272" style="fill: #f26d4b; stroke: #f26d4b"/>
     <use xlink:href="#m28b6effc1e" x="153.97767" y="130.27218" style="fill: #f26d4b; stroke: #f26d4b"/>
     <use xlink:href="#m28b6effc1e" x="164.123125" y="130.967549" style="fill: #f26d4b; stroke: #f26d4b"/>
     <use xlink:href="#m28b6effc1e" x="174.26858" y="132.520708" style="fill: #f26d4b; stroke: #f26d4b"/>
     <use xlink:href="#m28b6effc1e" x="184.414034" y="135.213358" style="fill: #f26d4b; stroke: #f26d4b"/>
     <use xlink:href="#m28b6effc1e" x="194.559489" y="138.90338" style="fill: #f26d4b; stroke: #f26d4b"/>
     <use xlink:href="#m28b6effc1e" x="204.704943" y="143.387747" style="fill: #f26d4b; stroke: #f26d4b"/>
     <use xlink:href="#m28b6effc1e" x="214.850398" y="147.488899" style="fill: #f26d4b; stroke: #f26d4b"/>
     <use xlink:href="#m28b6effc1e" x="224.995852" y="151.130702" style="fill: #f26d4b; stroke: #f26d4b"/>
     <use xlink:href="#m28b6effc1e" x="235.141307" y="153.800511" style="fill: #f26d4b; stroke: #f26d4b"/>
     <use xlink:href="#m28b6effc1e" x="245.286761" y="155.965291" style="fill: #f26d4b; stroke: #f26d4b"/>
     <use xlink:href="#m28b6effc1e" x="255.432216" y="159.358385" style="fill: #f26d4b; stroke: #f26d4b"/>
     <use xlink:href="#m28b6effc1e" x="265.57767" y="162.132246" style="fill: #f26d4b; stroke: #f26d4b"/>
     <use xlink:href="#m28b6effc1e" x="275.723125" y="164.928948" style="fill: #f26d4b; stroke: #f26d4b"/>
     <use xlink:href="#m28b6effc1e" x="285.86858" y="167.87792" style="fill: #f26d4b; stroke: #f26d4b"/>
     <use xlink:href="#m28b6effc1e" x="296.014034" y="171.547639" style="fill: #f26d4b; stroke: #f26d4b"/>
     <use xlink:href="#m28b6effc1e" x="306.159489" y="175.02702" style="fill: #f26d4b; stroke: #f26d4b"/>
     <use xlink:href="#m28b6effc1e" x="316.304943" y="180.945267" style="fill: #f26d4b; stroke: #f26d4b"/>
     <use xlink:href="#m28b6effc1e" x="326.450398" y="189.05621" style="fill: #f26d4b; stroke: #f26d4b"/>
     <use xlink:href="#m28b6effc1e" x="336.595852" y="195.824634" style="fill: #f26d4b; stroke: #f26d4b"/>
     <use xlink:href="#m28b6effc1e" x="346.741307" y="204.740072" style="fill: #f26d4b; stroke: #f26d4b"/>
     <use xlink:href="#m28b6effc1e" x="356.886761" y="214.805153" style="fill: #f26d4b; stroke: #f26d4b"/>
     <use xlink:href="#m28b6effc1e" x="367.032216" y="222.26387" style="fill: #f26d4b; stroke: #f26d4b"/>
     <use xlink:href="#m28b6effc1e" x="377.17767" y="233.463365" style="fill: #f26d4b; stroke: #f26d4b"/>
     <use xlink:href="#m28b6effc1e" x="387.323125" y="244.55881" style="fill: #f26d4b; stroke: #f26d4b"/>
     <use xlink:href="#m28b6effc1e" x="397.46858" y="253.991968" style="fill: #f26d4b; stroke: #f26d4b"/>
     <use xlink:href="#m28b6effc1e" x="407.614034" y="263.980913" style="fill: #f26d4b; stroke: #f26d4b"/>
     <use xlink:href="#m28b6effc1e" x="417.759489" y="271.492925" style="fill: #f26d4b; stroke: #f26d4b"/>
     <use xlink:href="#m28b6effc1e" x="427.904943" y="280.488305" style="fill: #f26d4b; stroke: #f26d4b"/>
     <use xlink:href="#m28b6effc1e" x="438.050398" y="288.542146" style="fill: #f26d4b; stroke: #f26d4b"/>
     <use xlink:href="#m28b6effc1e" x="448.195852" y="291.964426" style="fill: #f26d4b; stroke: #f26d4b"/>
     <use xlink:href="#m28b6effc1e" x="458.341307" y="292.031678" style="fill: #f26d4b; stroke: #f26d4b"/>
     <use xlink:href="#m28b6effc1e" x="468.486761" y="299.213771" style="fill: #f26d4b; stroke: #f26d4b"/>
     <use xlink:href="#m28b6effc1e" x="478.632216" y="327.737209" style="fill: #f26d4b; stroke: #f26d4b"/>
    </g>
   </g>
   <g id="LineCollection_3">
    <path d="M 72.814034 89.270808 
L 72.814034 78.337786 
" clip-path="url(#p741ec6253b)" style="fill: none; stroke: #a80000; stroke-width: 2"/>
    <path d="M 82.959489 79.74375 
L 82.959489 68.699063 
" clip-path="url(#p741ec6253b)" style="fill: none; stroke: #a80000; stroke-width: 2"/>
    <path d="M 93.104943 88.610969 
L 93.104943 77.373406 
" clip-path="url(#p741ec6253b)" style="fill: none; stroke: #a80000; stroke-width: 2"/>
    <path d="M 103.250398 102.102136 
L 103.250398 90.84427 
" clip-path="url(#p741ec6253b)" style="fill: none; stroke: #a80000; stroke-width: 2"/>
    <path d="M 113.395852 112.679861 
L 113.395852 101.381389 
" clip-path="url(#p741ec6253b)" style="fill: none; stroke: #a80000; stroke-width: 2"/>
    <path d="M 123.541307 116.344504 
L 123.541307 105.188152 
" clip-path="url(#p741ec6253b)" style="fill: none; stroke: #a80000; stroke-width: 2"/>
    <path d="M 133.686761 119.699531 
L 133.686761 108.654844 
" clip-path="url(#p741ec6253b)" style="fill: none; stroke: #a80000; stroke-width: 2"/>
    <path d="M 143.832216 122.597747 
L 143.832216 111.603816 
" clip-path="url(#p741ec6253b)" style="fill: none; stroke: #a80000; stroke-width: 2"/>
    <path d="M 153.97767 126.602461 
L 153.97767 115.720195 
" clip-path="url(#p741ec6253b)" style="fill: none; stroke: #a80000; stroke-width: 2"/>
    <path d="M 164.123125 132.464875 
L 164.123125 121.877 
" clip-path="url(#p741ec6253b)" style="fill: none; stroke: #a80000; stroke-width: 2"/>
    <path d="M 174.26858 139.007432 
L 174.26858 128.653037 
" clip-path="url(#p741ec6253b)" style="fill: none; stroke: #a80000; stroke-width: 2"/>
    <path d="M 184.414034 147.648783 
L 184.414034 137.553248 
" clip-path="url(#p741ec6253b)" style="fill: none; stroke: #a80000; stroke-width: 2"/>
    <path d="M 194.559489 156.493162 
L 194.559489 146.575276 
" clip-path="url(#p741ec6253b)" style="fill: none; stroke: #a80000; stroke-width: 2"/>
    <path d="M 204.704943 164.50259 
L 204.704943 154.808035 
" clip-path="url(#p741ec6253b)" style="fill: none; stroke: #a80000; stroke-width: 2"/>
    <path d="M 214.850398 173.171858 
L 214.850398 163.68033 
" clip-path="url(#p741ec6253b)" style="fill: none; stroke: #a80000; stroke-width: 2"/>
    <path d="M 224.995852 180.597583 
L 224.995852 171.197417 
" clip-path="url(#p741ec6253b)" style="fill: none; stroke: #a80000; stroke-width: 2"/>
    <path d="M 235.141307 189.591694 
L 235.141307 180.394556 
" clip-path="url(#p741ec6253b)" style="fill: none; stroke: #a80000; stroke-width: 2"/>
    <path d="M 245.286761 198.243197 
L 245.286761 189.284615 
" clip-path="url(#p741ec6253b)" style="fill: none; stroke: #a80000; stroke-width: 2"/>
    <path d="M 255.432216 208.181385 
L 255.432216 199.48674 
" clip-path="url(#p741ec6253b)" style="fill: none; stroke: #a80000; stroke-width: 2"/>
    <path d="M 265.57767 219.068727 
L 265.57767 210.688773 
" clip-path="url(#p741ec6253b)" style="fill: none; stroke: #a80000; stroke-width: 2"/>
    <path d="M 275.723125 230.113414 
L 275.723125 222.058304 
" clip-path="url(#p741ec6253b)" style="fill: none; stroke: #a80000; stroke-width: 2"/>
    <path d="M 285.86858 242.754404 
L 285.86858 235.079971 
" clip-path="url(#p741ec6253b)" style="fill: none; stroke: #a80000; stroke-width: 2"/>
    <path d="M 296.014034 253.862538 
L 296.014034 246.7109 
" clip-path="url(#p741ec6253b)" style="fill: none; stroke: #a80000; stroke-width: 2"/>
    <path d="M 306.159489 260.948192 
L 306.159489 253.91837 
" clip-path="url(#p741ec6253b)" style="fill: none; stroke: #a80000; stroke-width: 2"/>
    <path d="M 316.304943 271.574136 
L 316.304943 264.813325 
" clip-path="url(#p741ec6253b)" style="fill: none; stroke: #a80000; stroke-width: 2"/>
    <path d="M 326.450398 282.16455 
L 326.450398 276.149865 
" clip-path="url(#p741ec6253b)" style="fill: none; stroke: #a80000; stroke-width: 2"/>
    <path d="M 336.595852 291.166274 
L 336.595852 285.826655 
" clip-path="url(#p741ec6253b)" style="fill: none; stroke: #a80000; stroke-width: 2"/>
    <path d="M 346.741307 297.575594 
L 346.741307 292.654719 
" clip-path="url(#p741ec6253b)" style="fill: none; stroke: #a80000; stroke-width: 2"/>
    <path d="M 356.886761 304.784333 
L 356.886761 300.67303 
" clip-path="url(#p741ec6253b)" style="fill: none; stroke: #a80000; stroke-width: 2"/>
    <path d="M 367.032216 309.285196 
L 367.032216 305.633242 
" clip-path="url(#p741ec6253b)" style="fill: none; stroke: #a80000; stroke-width: 2"/>
    <path d="M 377.17767 313.651553 
L 377.17767 310.524932 
" clip-path="url(#p741ec6253b)" style="fill: none; stroke: #a80000; stroke-width: 2"/>
    <path d="M 387.323125 316.396229 
L 387.323125 313.668049 
" clip-path="url(#p741ec6253b)" style="fill: none; stroke: #a80000; stroke-width: 2"/>
    <path d="M 397.46858 319.562821 
L 397.46858 317.363781 
" clip-path="url(#p741ec6253b)" style="fill: none; stroke: #a80000; stroke-width: 2"/>
    <path d="M 407.614034 321.87416 
L 407.614034 319.884492 
" clip-path="url(#p741ec6253b)" style="fill: none; stroke: #a80000; stroke-width: 2"/>
    <path d="M 417.759489 323.049815 
L 417.759489 321.063954 
" clip-path="url(#p741ec6253b)" style="fill: none; stroke: #a80000; stroke-width: 2"/>
    <path d="M 427.904943 324.796485 
L 427.904943 323.093593 
" clip-path="url(#p741ec6253b)" style="fill: none; stroke: #a80000; stroke-width: 2"/>
    <path d="M 438.050398 325.948665 
L 438.050398 324.458952 
" clip-path="url(#p741ec6253b)" style="fill: none; stroke: #a80000; stroke-width: 2"/>
    <path d="M 448.195852 326.71319 
L 448.195852 325.298343 
" clip-path="url(#p741ec6253b)" style="fill: none; stroke: #a80000; stroke-width: 2"/>
    <path d="M 458.341307 327.45075 
L 458.341307 326.164699 
" clip-path="url(#p741ec6253b)" style="fill: none; stroke: #a80000; stroke-width: 2"/>
    <path d="M 468.486761 328.258418 
L 468.486761 327.143671 
" clip-path="url(#p741ec6253b)" style="fill: none; stroke: #a80000; stroke-width: 2"/>
    <path d="M 478.632216 328.720623 
L 478.632216 327.737209 
" clip-path="url(#p741ec6253b)" style="fill: none; stroke: #a80000; stroke-width: 2"/>
   </g>
   <g id="line2d_29">
    <defs>
     <path id="m66848e49d5" d="M 3 0 
L -3 -0 
" style="stroke: #a80000"/>
    </defs>
    <g clip-path="url(#p741ec6253b)">
     <use xlink:href="#m66848e49d5" x="72.814034" y="89.270808" style="fill: #a80000; stroke: #a80000"/>
     <use xlink:href="#m66848e49d5" x="82.959489" y="79.74375" style="fill: #a80000; stroke: #a80000"/>
     <use xlink:href="#m66848e49d5" x="93.104943" y="88.610969" style="fill: #a80000; stroke: #a80000"/>
     <use xlink:href="#m66848e49d5" x="103.250398" y="102.102136" style="fill: #a80000; stroke: #a80000"/>
     <use xlink:href="#m66848e49d5" x="113.395852" y="112.679861" style="fill: #a80000; stroke: #a80000"/>
     <use xlink:href="#m66848e49d5" x="123.541307" y="116.344504" style="fill: #a80000; stroke: #a80000"/>
     <use xlink:href="#m66848e49d5" x="133.686761" y="119.699531" style="fill: #a80000; stroke: #a80000"/>
     <use xlink:href="#m66848e49d5" x="143.832216" y="122.597747" style="fill: #a80000; stroke: #a80000"/>
     <use xlink:href="#m66848e49d5" x="153.97767" y="126.602461" style="fill: #a80000; stroke: #a80000"/>
     <use xlink:href="#m66848e49d5" x="164.123125" y="132.464875" style="fill: #a80000; stroke: #a80000"/>
     <use xlink:href="#m66848e49d5" x="174.26858" y="139.007432" style="fill: #a80000; stroke: #a80000"/>
     <use xlink:href="#m66848e49d5" x="184.414034" y="147.648783" style="fill: #a80000; stroke: #a80000"/>
     <use xlink:href="#m66848e49d5" x="194.559489" y="156.493162" style="fill: #a80000; stroke: #a80000"/>
     <use xlink:href="#m66848e49d5" x="204.704943" y="164.50259" style="fill: #a80000; stroke: #a80000"/>
     <use xlink:href="#m66848e49d5" x="214.850398" y="173.171858" style="fill: #a80000; stroke: #a80000"/>
     <use xlink:href="#m66848e49d5" x="224.995852" y="180.597583" style="fill: #a80000; stroke: #a80000"/>
     <use xlink:href="#m66848e49d5" x="235.141307" y="189.591694" style="fill: #a80000; stroke: #a80000"/>
     <use xlink:href="#m66848e49d5" x="245.286761" y="198.243197" style="fill: #a80000; stroke: #a80000"/>
     <use xlink:href="#m66848e49d5" x="255.432216" y="208.181385" style="fill: #a80000; stroke: #a80000"/>
     <use xlink:href="#m66848e49d5" x="265.57767" y="219.068727" style="fill: #a80000; stroke: #a80000"/>
     <use xlink:href="#m66848e49d5" x="275.723125" y="230.113414" style="fill: #a80000; stroke: #a80000"/>
     <use xlink:href="#m66848e49d5" x="285.86858" y="242.754404" style="fill: #a80000; stroke: #a80000"/>
     <use xlink:href="#m66848e49d5" x="296.014034" y="253.862538" style="fill: #a80000; stroke: #a80000"/>
     <use xlink:href="#m66848e49d5" x="306.159489" y="260.948192" style="fill: #a80000; stroke: #a80000"/>
     <use xlink:href="#m66848e49d5" x="316.304943" y="271.574136" style="fill: #a80000; stroke: #a80000"/>
     <use xlink:href="#m66848e49d5" x="326.450398" y="282.16455" style="fill: #a80000; stroke: #a80000"/>
     <use xlink:href="#m66848e49d5" x="336.595852" y="291.166274" style="fill: #a80000; stroke: #a80000"/>
     <use xlink:href="#m66848e49d5" x="346.741307" y="297.575594" style="fill: #a80000; stroke: #a80000"/>
     <use xlink:href="#m66848e49d5" x="356.886761" y="304.784333" style="fill: #a80000; stroke: #a80000"/>
     <use xlink:href="#m66848e49d5" x="367.032216" y="309.285196" style="fill: #a80000; stroke: #a80000"/>
     <use xlink:href="#m66848e49d5" x="377.17767" y="313.651553" style="fill: #a80000; stroke: #a80000"/>
     <use xlink:href="#m66848e49d5" x="387.323125" y="316.396229" style="fill: #a80000; stroke: #a80000"/>
     <use xlink:href="#m66848e49d5" x="397.46858" y="319.562821" style="fill: #a80000; stroke: #a80000"/>
     <use xlink:href="#m66848e49d5" x="407.614034" y="321.87416" style="fill: #a80000; stroke: #a80000"/>
     <use xlink:href="#m66848e49d5" x="417.759489" y="323.049815" style="fill: #a80000; stroke: #a80000"/>
     <use xlink:href="#m66848e49d5" x="427.904943" y="324.796485" style="fill: #a80000; stroke: #a80000"/>
     <use xlink:href="#m66848e49d5" x="438.050398" y="325.948665" style="fill: #a80000; stroke: #a80000"/>
     <use xlink:href="#m66848e49d5" x="448.195852" y="326.71319" style="fill: #a80000; stroke: #a80000"/>
     <use xlink:href="#m66848e49d5" x="458.341307" y="327.45075" style="fill: #a80000; stroke: #a80000"/>
     <use xlink:href="#m66848e49d5" x="468.486761" y="328.258418" style="fill: #a80000; stroke: #a80000"/>
     <use xlink:href="#m66848e49d5" x="478.632216" y="328.720623" style="fill: #a80000; stroke: #a80000"/>
    </g>
   </g>
   <g id="line2d_30">
    <g clip-path="url(#p741ec6253b)">
     <use xlink:href="#m66848e49d5" x="72.814034" y="78.337786" style="fill: #a80000; stroke: #a80000"/>
     <use xlink:href="#m66848e49d5" x="82.959489" y="68.699063" style="fill: #a80000; stroke: #a80000"/>
     <use xlink:href="#m66848e49d5" x="93.104943" y="77.373406" style="fill: #a80000; stroke: #a80000"/>
     <use xlink:href="#m66848e49d5" x="103.250398" y="90.84427" style="fill: #a80000; stroke: #a80000"/>
     <use xlink:href="#m66848e49d5" x="113.395852" y="101.381389" style="fill: #a80000; stroke: #a80000"/>
     <use xlink:href="#m66848e49d5" x="123.541307" y="105.188152" style="fill: #a80000; stroke: #a80000"/>
     <use xlink:href="#m66848e49d5" x="133.686761" y="108.654844" style="fill: #a80000; stroke: #a80000"/>
     <use xlink:href="#m66848e49d5" x="143.832216" y="111.603816" style="fill: #a80000; stroke: #a80000"/>
     <use xlink:href="#m66848e49d5" x="153.97767" y="115.720195" style="fill: #a80000; stroke: #a80000"/>
     <use xlink:href="#m66848e49d5" x="164.123125" y="121.877" style="fill: #a80000; stroke: #a80000"/>
     <use xlink:href="#m66848e49d5" x="174.26858" y="128.653037" style="fill: #a80000; stroke: #a80000"/>
     <use xlink:href="#m66848e49d5" x="184.414034" y="137.553248" style="fill: #a80000; stroke: #a80000"/>
     <use xlink:href="#m66848e49d5" x="194.559489" y="146.575276" style="fill: #a80000; stroke: #a80000"/>
     <use xlink:href="#m66848e49d5" x="204.704943" y="154.808035" style="fill: #a80000; stroke: #a80000"/>
     <use xlink:href="#m66848e49d5" x="214.850398" y="163.68033" style="fill: #a80000; stroke: #a80000"/>
     <use xlink:href="#m66848e49d5" x="224.995852" y="171.197417" style="fill: #a80000; stroke: #a80000"/>
     <use xlink:href="#m66848e49d5" x="235.141307" y="180.394556" style="fill: #a80000; stroke: #a80000"/>
     <use xlink:href="#m66848e49d5" x="245.286761" y="189.284615" style="fill: #a80000; stroke: #a80000"/>
     <use xlink:href="#m66848e49d5" x="255.432216" y="199.48674" style="fill: #a80000; stroke: #a80000"/>
     <use xlink:href="#m66848e49d5" x="265.57767" y="210.688773" style="fill: #a80000; stroke: #a80000"/>
     <use xlink:href="#m66848e49d5" x="275.723125" y="222.058304" style="fill: #a80000; stroke: #a80000"/>
     <use xlink:href="#m66848e49d5" x="285.86858" y="235.079971" style="fill: #a80000; stroke: #a80000"/>
     <use xlink:href="#m66848e49d5" x="296.014034" y="246.7109" style="fill: #a80000; stroke: #a80000"/>
     <use xlink:href="#m66848e49d5" x="306.159489" y="253.91837" style="fill: #a80000; stroke: #a80000"/>
     <use xlink:href="#m66848e49d5" x="316.304943" y="264.813325" style="fill: #a80000; stroke: #a80000"/>
     <use xlink:href="#m66848e49d5" x="326.450398" y="276.149865" style="fill: #a80000; stroke: #a80000"/>
     <use xlink:href="#m66848e49d5" x="336.595852" y="285.826655" style="fill: #a80000; stroke: #a80000"/>
     <use xlink:href="#m66848e49d5" x="346.741307" y="292.654719" style="fill: #a80000; stroke: #a80000"/>
     <use xlink:href="#m66848e49d5" x="356.886761" y="300.67303" style="fill: #a80000; stroke: #a80000"/>
     <use xlink:href="#m66848e49d5" x="367.032216" y="305.633242" style="fill: #a80000; stroke: #a80000"/>
     <use xlink:href="#m66848e49d5" x="377.17767" y="310.524932" style="fill: #a80000; stroke: #a80000"/>
     <use xlink:href="#m66848e49d5" x="387.323125" y="313.668049" style="fill: #a80000; stroke: #a80000"/>
     <use xlink:href="#m66848e49d5" x="397.46858" y="317.363781" style="fill: #a80000; stroke: #a80000"/>
     <use xlink:href="#m66848e49d5" x="407.614034" y="319.884492" style="fill: #a80000; stroke: #a80000"/>
     <use xlink:href="#m66848e49d5" x="417.759489" y="321.063954" style="fill: #a80000; stroke: #a80000"/>
     <use xlink:href="#m66848e49d5" x="427.904943" y="323.093593" style="fill: #a80000; stroke: #a80000"/>
     <use xlink:href="#m66848e49d5" x="438.050398" y="324.458952" style="fill: #a80000; stroke: #a80000"/>
     <use xlink:href="#m66848e49d5" x="448.195852" y="325.298343" style="fill: #a80000; stroke: #a80000"/>
     <use xlink:href="#m66848e49d5" x="458.341307" y="326.164699" style="fill: #a80000; stroke: #a80000"/>
     <use xlink:href="#m66848e49d5" x="468.486761" y="327.143671" style="fill: #a80000; stroke: #a80000"/>
     <use xlink:href="#m66848e49d5" x="478.632216" y="327.737209" style="fill: #a80000; stroke: #a80000"/>
    </g>
   </g>
   <g id="line2d_31">
    <path d="M 72.814034 83.804297 
L 82.959489 86.565469 
L 93.104943 90.13875 
L 103.250398 93.874453 
L 113.395852 96.635625 
L 123.541307 100.371328 
L 133.686761 104.107031 
L 143.832216 108.979688 
L 153.97767 112.715391 
L 164.123125 117.425625 
L 174.26858 121.648594 
L 184.414034 127.008516 
L 194.559489 132.206016 
L 204.704943 137.728359 
L 214.850398 143.900391 
L 224.995852 150.072422 
L 235.141307 156.731719 
L 245.286761 164.040703 
L 255.432216 168.913359 
L 265.57767 179.064727 
L 275.723125 187.916719 
L 285.86858 195.306914 
L 296.014034 202.859531 
L 306.159489 213.579375 
L 316.304943 222.106523 
L 326.450398 231.120938 
L 336.595852 240.216563 
L 346.741307 248.824922 
L 356.886761 257.676914 
L 367.032216 267.503438 
L 377.17767 273.797285 
L 387.323125 283.461387 
L 397.46858 291.257637 
L 407.614034 298.404199 
L 417.759489 306.748623 
L 427.904943 312.819141 
L 438.050398 317.34665 
L 448.195852 320.879326 
L 458.341307 324.046553 
L 468.486761 326.117432 
L 478.632216 328.228916 
" clip-path="url(#p741ec6253b)" style="fill: none; stroke: #808080; stroke-width: 2; stroke-linecap: square"/>
   </g>
   <g id="line2d_32">
    <path d="M 72.814034 83.804297 
L 82.959489 89.976328 
L 93.104943 108.005156 
L 103.250398 120.349219 
L 113.395852 129.932109 
L 123.541307 134.155078 
L 133.686761 135.941719 
L 143.832216 135.616875 
L 153.97767 135.616875 
L 164.123125 136.266563 
L 174.26858 137.728359 
L 184.414034 140.327109 
L 194.559489 143.900391 
L 204.704943 148.285781 
L 214.850398 152.346328 
L 224.995852 155.919609 
L 235.141307 158.518359 
L 245.286761 160.629844 
L 255.432216 163.878281 
L 265.57767 166.639453 
L 275.723125 169.400625 
L 285.86858 172.324219 
L 296.014034 175.8975 
L 306.159489 179.38957 
L 316.304943 185.155547 
L 326.450398 193.114219 
L 336.595852 199.773516 
L 346.741307 208.544297 
L 356.886761 218.452031 
L 367.032216 225.761016 
L 377.17767 236.724492 
L 387.323125 247.525547 
L 397.46858 256.702383 
L 407.614034 266.447695 
L 417.759489 273.797285 
L 427.904943 282.486855 
L 438.050398 290.161289 
L 448.195852 293.450332 
L 458.341307 293.490938 
L 468.486761 300.434473 
L 478.632216 328.228916 
" clip-path="url(#p741ec6253b)" style="fill: none; stroke: #f26d4b; stroke-width: 2; stroke-linecap: square"/>
   </g>
   <g id="line2d_33">
    <path d="M 72.814034 83.804297 
L 82.959489 74.221406 
L 93.104943 82.992188 
L 103.250398 96.473203 
L 113.395852 107.030625 
L 123.541307 110.766328 
L 133.686761 114.177188 
L 143.832216 117.100781 
L 153.97767 121.161328 
L 164.123125 127.170938 
L 174.26858 133.830234 
L 184.414034 142.601016 
L 194.559489 151.534219 
L 204.704943 159.655313 
L 214.850398 168.426094 
L 224.995852 175.8975 
L 235.141307 184.993125 
L 245.286761 193.763906 
L 255.432216 203.834063 
L 265.57767 214.87875 
L 275.723125 226.085859 
L 285.86858 238.917188 
L 296.014034 250.286719 
L 306.159489 257.433281 
L 316.304943 268.19373 
L 326.450398 279.157207 
L 336.595852 288.496465 
L 346.741307 295.115156 
L 356.886761 302.728682 
L 367.032216 307.459219 
L 377.17767 312.088242 
L 387.323125 315.032139 
L 397.46858 318.463301 
L 407.614034 320.879326 
L 417.759489 322.056885 
L 427.904943 323.945039 
L 438.050398 325.203809 
L 448.195852 326.005767 
L 458.341307 326.807725 
L 468.486761 327.701045 
L 478.632216 328.228916 
" clip-path="url(#p741ec6253b)" style="fill: none; stroke: #a80000; stroke-width: 2; stroke-linecap: square"/>
   </g>
   <g id="patch_3">
    <path d="M 52.523125 343.516875 
L 52.523125 10.876875 
" style="fill: none; stroke: #808080; stroke-width: 2; stroke-linejoin: miter; stroke-linecap: square"/>
   </g>
   <g id="patch_4">
    <path d="M 52.523125 343.516875 
L 498.923125 343.516875 
" style="fill: none; stroke: #808080; stroke-width: 2; stroke-linejoin: miter; stroke-linecap: square"/>
   </g>
   <g id="legend_1">
    <g id="LineCollection_4">
     <path d="M 396.323125 31.876875 
L 396.323125 19.876875 
" style="fill: none; stroke: #808080; stroke-width: 2"/>
    </g>
    <g id="line2d_34">
     <g>
      <use xlink:href="#mcb5057bbac" x="396.323125" y="31.876875" style="fill: #808080; stroke: #808080"/>
     </g>
    </g>
    <g id="line2d_35">
     <g>
      <use xlink:href="#mcb5057bbac" x="396.323125" y="19.876875" style="fill: #808080; stroke: #808080"/>
     </g>
    </g>
    <g id="line2d_36">
     <path d="M 384.323125 25.876875 
L 408.323125 25.876875 
" style="fill: none; stroke: #808080; stroke-width: 2; stroke-linecap: square"/>
    </g>
    <g id="line2d_37"/>
    <g id="text_15">
     <!-- $Random$ -->
     <g transform="translate(417.923125 30.076875) scale(0.12 -0.12)">
      <defs>
       <path id="DejaVuSans-Oblique-52" d="M 1613 4147 
L 1294 2491 
L 2106 2491 
Q 2584 2491 2879 2755 
Q 3175 3019 3175 3444 
Q 3175 3784 2976 3965 
Q 2778 4147 2406 4147 
L 1613 4147 
z
M 2772 2241 
Q 2972 2194 3105 2009 
Q 3238 1825 3413 1275 
L 3809 0 
L 3144 0 
L 2778 1197 
Q 2638 1659 2453 1815 
Q 2269 1972 1888 1972 
L 1191 1972 
L 806 0 
L 172 0 
L 1081 4666 
L 2503 4666 
Q 3150 4666 3495 4373 
Q 3841 4081 3841 3531 
Q 3841 3044 3547 2687 
Q 3253 2331 2772 2241 
z
" transform="scale(0.015625)"/>
       <path id="DejaVuSans-Oblique-61" d="M 3438 1997 
L 3047 0 
L 2472 0 
L 2578 531 
Q 2325 219 2001 64 
Q 1678 -91 1281 -91 
Q 834 -91 548 182 
Q 263 456 263 884 
Q 263 1497 752 1853 
Q 1241 2209 2100 2209 
L 2900 2209 
L 2931 2363 
Q 2938 2388 2941 2417 
Q 2944 2447 2944 2509 
Q 2944 2788 2717 2942 
Q 2491 3097 2081 3097 
Q 1800 3097 1504 3025 
Q 1209 2953 897 2809 
L 997 3341 
Q 1322 3463 1633 3523 
Q 1944 3584 2234 3584 
Q 2853 3584 3176 3315 
Q 3500 3047 3500 2534 
Q 3500 2431 3484 2292 
Q 3469 2153 3438 1997 
z
M 2816 1759 
L 2241 1759 
Q 1534 1759 1195 1570 
Q 856 1381 856 984 
Q 856 709 1029 553 
Q 1203 397 1509 397 
Q 1978 397 2328 733 
Q 2678 1069 2791 1631 
L 2816 1759 
z
" transform="scale(0.015625)"/>
       <path id="DejaVuSans-Oblique-6e" d="M 3566 2113 
L 3156 0 
L 2578 0 
L 2988 2091 
Q 3016 2238 3031 2350 
Q 3047 2463 3047 2528 
Q 3047 2791 2881 2937 
Q 2716 3084 2419 3084 
Q 1956 3084 1622 2776 
Q 1288 2469 1184 1941 
L 800 0 
L 225 0 
L 903 3500 
L 1478 3500 
L 1363 2950 
Q 1603 3253 1940 3418 
Q 2278 3584 2650 3584 
Q 3113 3584 3367 3334 
Q 3622 3084 3622 2631 
Q 3622 2519 3608 2391 
Q 3594 2263 3566 2113 
z
" transform="scale(0.015625)"/>
       <path id="DejaVuSans-Oblique-64" d="M 2675 525 
Q 2444 222 2128 65 
Q 1813 -91 1428 -91 
Q 903 -91 598 267 
Q 294 625 294 1247 
Q 294 1766 478 2236 
Q 663 2706 1013 3078 
Q 1244 3325 1534 3454 
Q 1825 3584 2144 3584 
Q 2481 3584 2739 3421 
Q 2997 3259 3138 2956 
L 3513 4863 
L 4091 4863 
L 3144 0 
L 2566 0 
L 2675 525 
z
M 891 1350 
Q 891 897 1095 644 
Q 1300 391 1663 391 
Q 1931 391 2161 520 
Q 2391 650 2566 903 
Q 2750 1166 2856 1509 
Q 2963 1853 2963 2188 
Q 2963 2622 2758 2865 
Q 2553 3109 2194 3109 
Q 1922 3109 1687 2981 
Q 1453 2853 1288 2613 
Q 1106 2353 998 2009 
Q 891 1666 891 1350 
z
" transform="scale(0.015625)"/>
       <path id="DejaVuSans-Oblique-6f" d="M 1625 -91 
Q 1009 -91 651 289 
Q 294 669 294 1325 
Q 294 1706 417 2101 
Q 541 2497 738 2766 
Q 1047 3184 1428 3384 
Q 1809 3584 2291 3584 
Q 2888 3584 3255 3212 
Q 3622 2841 3622 2241 
Q 3622 1825 3500 1412 
Q 3378 1000 3181 728 
Q 2875 309 2494 109 
Q 2113 -91 1625 -91 
z
M 891 1344 
Q 891 869 1089 633 
Q 1288 397 1691 397 
Q 2269 397 2648 901 
Q 3028 1406 3028 2181 
Q 3028 2634 2825 2865 
Q 2622 3097 2228 3097 
Q 1903 3097 1650 2945 
Q 1397 2794 1197 2484 
Q 1050 2253 970 1956 
Q 891 1659 891 1344 
z
" transform="scale(0.015625)"/>
       <path id="DejaVuSans-Oblique-6d" d="M 5747 2113 
L 5338 0 
L 4763 0 
L 5166 2094 
Q 5191 2228 5203 2325 
Q 5216 2422 5216 2491 
Q 5216 2772 5059 2928 
Q 4903 3084 4622 3084 
Q 4203 3084 3875 2770 
Q 3547 2456 3450 1953 
L 3066 0 
L 2491 0 
L 2900 2094 
Q 2925 2209 2937 2307 
Q 2950 2406 2950 2484 
Q 2950 2769 2794 2926 
Q 2638 3084 2363 3084 
Q 1938 3084 1609 2770 
Q 1281 2456 1184 1953 
L 800 0 
L 225 0 
L 909 3500 
L 1484 3500 
L 1375 2956 
Q 1609 3263 1923 3423 
Q 2238 3584 2597 3584 
Q 2978 3584 3223 3384 
Q 3469 3184 3519 2828 
Q 3781 3197 4126 3390 
Q 4472 3584 4856 3584 
Q 5306 3584 5551 3325 
Q 5797 3066 5797 2591 
Q 5797 2488 5784 2364 
Q 5772 2241 5747 2113 
z
" transform="scale(0.015625)"/>
      </defs>
      <use xlink:href="#DejaVuSans-Oblique-52" transform="translate(0 0.015625)"/>
      <use xlink:href="#DejaVuSans-Oblique-61" transform="translate(69.482422 0.015625)"/>
      <use xlink:href="#DejaVuSans-Oblique-6e" transform="translate(130.761719 0.015625)"/>
      <use xlink:href="#DejaVuSans-Oblique-64" transform="translate(194.140625 0.015625)"/>
      <use xlink:href="#DejaVuSans-Oblique-6f" transform="translate(257.617188 0.015625)"/>
      <use xlink:href="#DejaVuSans-Oblique-6d" transform="translate(318.798828 0.015625)"/>
     </g>
    </g>
    <g id="LineCollection_5">
     <path d="M 396.323125 49.258125 
L 396.323125 37.258125 
" style="fill: none; stroke: #f26d4b; stroke-width: 2"/>
    </g>
    <g id="line2d_38">
     <g>
      <use xlink:href="#m28b6effc1e" x="396.323125" y="49.258125" style="fill: #f26d4b; stroke: #f26d4b"/>
     </g>
    </g>
    <g id="line2d_39">
     <g>
      <use xlink:href="#m28b6effc1e" x="396.323125" y="37.258125" style="fill: #f26d4b; stroke: #f26d4b"/>
     </g>
    </g>
    <g id="line2d_40">
     <path d="M 384.323125 43.258125 
L 408.323125 43.258125 
" style="fill: none; stroke: #f26d4b; stroke-width: 2; stroke-linecap: square"/>
    </g>
    <g id="line2d_41"/>
    <g id="text_16">
     <!-- $Targeted$ -->
     <g transform="translate(417.923125 47.458125) scale(0.12 -0.12)">
      <defs>
       <path id="DejaVuSans-Oblique-54" d="M 378 4666 
L 4325 4666 
L 4225 4134 
L 2559 4134 
L 1759 0 
L 1125 0 
L 1925 4134 
L 275 4134 
L 378 4666 
z
" transform="scale(0.015625)"/>
       <path id="DejaVuSans-Oblique-72" d="M 2853 2969 
Q 2766 3016 2653 3041 
Q 2541 3066 2413 3066 
Q 1953 3066 1609 2717 
Q 1266 2369 1153 1784 
L 800 0 
L 225 0 
L 909 3500 
L 1484 3500 
L 1375 2956 
Q 1603 3259 1920 3421 
Q 2238 3584 2597 3584 
Q 2691 3584 2781 3573 
Q 2872 3563 2963 3538 
L 2853 2969 
z
" transform="scale(0.015625)"/>
       <path id="DejaVuSans-Oblique-67" d="M 3816 3500 
L 3219 434 
Q 3047 -456 2561 -893 
Q 2075 -1331 1253 -1331 
Q 950 -1331 690 -1286 
Q 431 -1241 206 -1147 
L 313 -588 
Q 525 -725 762 -790 
Q 1000 -856 1269 -856 
Q 1816 -856 2167 -557 
Q 2519 -259 2631 300 
L 2681 563 
Q 2441 288 2122 144 
Q 1803 0 1434 0 
Q 903 0 598 351 
Q 294 703 294 1319 
Q 294 1803 478 2267 
Q 663 2731 997 3091 
Q 1219 3328 1514 3456 
Q 1809 3584 2131 3584 
Q 2484 3584 2746 3420 
Q 3009 3256 3138 2956 
L 3238 3500 
L 3816 3500 
z
M 2950 2216 
Q 2950 2641 2750 2872 
Q 2550 3103 2181 3103 
Q 1953 3103 1747 3012 
Q 1541 2922 1394 2759 
Q 1156 2491 1023 2127 
Q 891 1763 891 1375 
Q 891 944 1092 712 
Q 1294 481 1672 481 
Q 2219 481 2584 976 
Q 2950 1472 2950 2216 
z
" transform="scale(0.015625)"/>
       <path id="DejaVuSans-Oblique-65" d="M 3078 2063 
Q 3088 2113 3092 2166 
Q 3097 2219 3097 2272 
Q 3097 2653 2873 2875 
Q 2650 3097 2266 3097 
Q 1838 3097 1509 2826 
Q 1181 2556 1013 2059 
L 3078 2063 
z
M 3578 1613 
L 903 1613 
Q 884 1494 878 1425 
Q 872 1356 872 1306 
Q 872 872 1139 634 
Q 1406 397 1894 397 
Q 2269 397 2603 481 
Q 2938 566 3225 728 
L 3116 159 
Q 2806 34 2476 -28 
Q 2147 -91 1806 -91 
Q 1078 -91 686 257 
Q 294 606 294 1247 
Q 294 1794 489 2264 
Q 684 2734 1063 3103 
Q 1306 3334 1642 3459 
Q 1978 3584 2356 3584 
Q 2950 3584 3301 3228 
Q 3653 2872 3653 2272 
Q 3653 2128 3634 1964 
Q 3616 1800 3578 1613 
z
" transform="scale(0.015625)"/>
       <path id="DejaVuSans-Oblique-74" d="M 2706 3500 
L 2619 3053 
L 1472 3053 
L 1100 1153 
Q 1081 1047 1072 975 
Q 1063 903 1063 863 
Q 1063 663 1183 572 
Q 1303 481 1569 481 
L 2150 481 
L 2053 0 
L 1503 0 
Q 991 0 739 200 
Q 488 400 488 806 
Q 488 878 497 964 
Q 506 1050 525 1153 
L 897 3053 
L 409 3053 
L 500 3500 
L 978 3500 
L 1172 4494 
L 1747 4494 
L 1556 3500 
L 2706 3500 
z
" transform="scale(0.015625)"/>
      </defs>
      <use xlink:href="#DejaVuSans-Oblique-54" transform="translate(0 0.015625)"/>
      <use xlink:href="#DejaVuSans-Oblique-61" transform="translate(61.083984 0.015625)"/>
      <use xlink:href="#DejaVuSans-Oblique-72" transform="translate(122.363281 0.015625)"/>
      <use xlink:href="#DejaVuSans-Oblique-67" transform="translate(163.476562 0.015625)"/>
      <use xlink:href="#DejaVuSans-Oblique-65" transform="translate(226.953125 0.015625)"/>
      <use xlink:href="#DejaVuSans-Oblique-74" transform="translate(288.476562 0.015625)"/>
      <use xlink:href="#DejaVuSans-Oblique-65" transform="translate(327.685547 0.015625)"/>
      <use xlink:href="#DejaVuSans-Oblique-64" transform="translate(389.208984 0.015625)"/>
     </g>
    </g>
    <g id="LineCollection_6">
     <path d="M 396.323125 66.898125 
L 396.323125 54.898125 
" style="fill: none; stroke: #a80000; stroke-width: 2"/>
    </g>
    <g id="line2d_42">
     <g>
      <use xlink:href="#m66848e49d5" x="396.323125" y="66.898125" style="fill: #a80000; stroke: #a80000"/>
     </g>
    </g>
    <g id="line2d_43">
     <g>
      <use xlink:href="#m66848e49d5" x="396.323125" y="54.898125" style="fill: #a80000; stroke: #a80000"/>
     </g>
    </g>
    <g id="line2d_44">
     <path d="M 384.323125 60.898125 
L 408.323125 60.898125 
" style="fill: none; stroke: #a80000; stroke-width: 2; stroke-linecap: square"/>
    </g>
    <g id="line2d_45"/>
    <g id="text_17">
     <!-- $Targeted_{Abs}$ -->
     <g transform="translate(417.923125 65.098125) scale(0.12 -0.12)">
      <defs>
       <path id="DejaVuSans-Oblique-41" d="M 2356 4666 
L 3072 4666 
L 3938 0 
L 3278 0 
L 3084 1197 
L 984 1197 
L 325 0 
L -341 0 
L 2356 4666 
z
M 2584 4044 
L 1275 1722 
L 2988 1722 
L 2584 4044 
z
" transform="scale(0.015625)"/>
       <path id="DejaVuSans-Oblique-62" d="M 3169 2138 
Q 3169 2591 2961 2847 
Q 2753 3103 2388 3103 
Q 2122 3103 1889 2973 
Q 1656 2844 1484 2597 
Q 1303 2338 1198 1995 
Q 1094 1653 1094 1313 
Q 1094 881 1298 636 
Q 1503 391 1863 391 
Q 2134 391 2365 517 
Q 2597 644 2772 891 
Q 2950 1147 3059 1487 
Q 3169 1828 3169 2138 
z
M 1381 2969 
Q 1594 3256 1914 3420 
Q 2234 3584 2584 3584 
Q 3122 3584 3439 3221 
Q 3756 2859 3756 2241 
Q 3756 1734 3570 1259 
Q 3384 784 3041 416 
Q 2816 172 2522 40 
Q 2228 -91 1906 -91 
Q 1566 -91 1316 65 
Q 1066 222 909 531 
L 806 0 
L 231 0 
L 1178 4863 
L 1753 4863 
L 1381 2969 
z
" transform="scale(0.015625)"/>
       <path id="DejaVuSans-Oblique-73" d="M 3200 3397 
L 3091 2853 
Q 2863 2978 2609 3040 
Q 2356 3103 2088 3103 
Q 1634 3103 1373 2948 
Q 1113 2794 1113 2528 
Q 1113 2219 1719 2053 
Q 1766 2041 1788 2034 
L 1972 1978 
Q 2547 1819 2739 1644 
Q 2931 1469 2931 1166 
Q 2931 609 2489 259 
Q 2047 -91 1331 -91 
Q 1053 -91 747 -37 
Q 441 16 72 128 
L 184 722 
Q 500 559 806 475 
Q 1113 391 1394 391 
Q 1816 391 2080 572 
Q 2344 753 2344 1031 
Q 2344 1331 1650 1516 
L 1591 1531 
L 1394 1581 
Q 956 1697 753 1886 
Q 550 2075 550 2369 
Q 550 2928 970 3256 
Q 1391 3584 2113 3584 
Q 2397 3584 2667 3537 
Q 2938 3491 3200 3397 
z
" transform="scale(0.015625)"/>
      </defs>
      <use xlink:href="#DejaVuSans-Oblique-54" transform="translate(0 0.015625)"/>
      <use xlink:href="#DejaVuSans-Oblique-61" transform="translate(61.083984 0.015625)"/>
      <use xlink:href="#DejaVuSans-Oblique-72" transform="translate(122.363281 0.015625)"/>
      <use xlink:href="#DejaVuSans-Oblique-67" transform="translate(163.476562 0.015625)"/>
      <use xlink:href="#DejaVuSans-Oblique-65" transform="translate(226.953125 0.015625)"/>
      <use xlink:href="#DejaVuSans-Oblique-74" transform="translate(288.476562 0.015625)"/>
      <use xlink:href="#DejaVuSans-Oblique-65" transform="translate(327.685547 0.015625)"/>
      <use xlink:href="#DejaVuSans-Oblique-64" transform="translate(389.208984 0.015625)"/>
      <use xlink:href="#DejaVuSans-Oblique-41" transform="translate(452.685547 -16.390625) scale(0.7)"/>
      <use xlink:href="#DejaVuSans-Oblique-62" transform="translate(500.571289 -16.390625) scale(0.7)"/>
      <use xlink:href="#DejaVuSans-Oblique-73" transform="translate(545.004883 -16.390625) scale(0.7)"/>
     </g>
    </g>
   </g>
  </g>
 </g>
 <defs>
  <clipPath id="p741ec6253b">
   <rect x="52.523125" y="10.876875" width="446.4" height="332.64"/>
  </clipPath>
 </defs>
</svg>
